<svg width="150" height="150" viewBox="0 0 150 150" fill="none" xmlns="http://www.w3.org/2000/svg">
<g clip-path="url(#clip0)">
<path d="M138.853 114.442C160.635 79.1936 149.719 32.9617 114.471 11.1798C79.2229 -10.6021 32.9909 0.314302 11.209 35.5623C-10.5729 70.8104 0.343518 117.042 35.5915 138.824C70.8396 160.606 117.071 149.69 138.853 114.442Z" fill="#F3F0FE"/>
<path d="M18.2814 113.484H131.719C133.107 113.484 134.218 112.373 134.218 110.985C134.218 109.596 133.107 108.485 131.719 108.485H18.2814C16.8929 108.485 15.7822 109.596 15.7822 110.985C15.7822 112.373 16.8929 113.484 18.2814 113.484Z" fill="#C3C3EA"/>
<path d="M106.356 31.8423H67.3866C66.2758 31.8423 65.3502 32.7679 65.3502 33.8787V108.717C65.3502 109.827 66.2758 110.753 67.3866 110.753H106.356C107.467 110.753 108.392 109.827 108.392 108.717V33.8787C108.392 32.7679 107.467 31.8423 106.356 31.8423Z" fill="#FFC359"/>
<path d="M85.5291 43.5054V38.8772H70.6263V79.2351H85.5291V54.3817" stroke="#FFF399" stroke-width="1.6927" stroke-miterlimit="10" stroke-linecap="round" stroke-linejoin="round"/>
<path d="M88.306 54.2891V79.2351H100.895" stroke="#FFF399" stroke-width="1.6927" stroke-miterlimit="10" stroke-linecap="round" stroke-linejoin="round"/>
<path d="M103.209 69.0531V38.8772H88.306V43.4128" stroke="#FFF399" stroke-width="1.6927" stroke-miterlimit="10" stroke-linecap="round" stroke-linejoin="round"/>
<path d="M85.5291 85.5757H70.6263V105.986H85.5291V85.5757Z" stroke="#FFF399" stroke-width="1.6927" stroke-miterlimit="10" stroke-linecap="round" stroke-linejoin="round"/>
<path d="M103.209 85.5757H88.306V105.986H103.209V85.5757Z" stroke="#FFF399" stroke-width="1.6927" stroke-miterlimit="10" stroke-linecap="round" stroke-linejoin="round"/>
<path d="M67.3866 110.799V33.8787H108.392C108.392 32.7679 107.467 31.8423 106.356 31.8423H67.3866C66.2758 31.8423 65.3502 32.7679 65.3502 33.8787V108.717C65.3502 109.874 66.2758 110.799 67.3866 110.799Z" fill="#F7A73C"/>
<path d="M105.939 70.7654H103.301C102.931 70.7654 102.653 71.0431 102.653 71.4133V82.1508C102.653 82.521 102.931 82.7987 103.301 82.7987H105.939C106.31 82.7987 106.587 82.521 106.587 82.1508V71.4133C106.587 71.0431 106.263 70.7654 105.939 70.7654Z" fill="#F28C27"/>
<path d="M104.551 81.6879C105.216 81.6879 105.754 81.1492 105.754 80.4846C105.754 79.82 105.216 79.2812 104.551 79.2812C103.886 79.2812 103.348 79.82 103.348 80.4846C103.348 81.1492 103.886 81.6879 104.551 81.6879Z" fill="#FFC359"/>
<path d="M87.1027 50.9568H86.5474C85.2977 50.9568 84.2795 49.9385 84.2795 48.6889C84.2795 48.041 84.7886 47.4856 85.4829 47.4856H88.2135C88.8615 47.4856 89.4168 47.9947 89.4168 48.6889C89.4168 49.9385 88.3986 50.9568 87.1027 50.9568Z" fill="#FFF399"/>
<path d="M86.825 46.4211C87.1829 46.4211 87.473 46.131 87.473 45.7732C87.473 45.4153 87.1829 45.1252 86.825 45.1252C86.4672 45.1252 86.1771 45.4153 86.1771 45.7732C86.1771 46.131 86.4672 46.4211 86.825 46.4211Z" fill="#FFF399"/>
<path d="M87.1953 52.3916H86.4548C86.1771 52.3916 85.9457 52.2064 85.8531 51.9287L85.2977 49.3369C85.2052 48.9667 85.4829 48.5964 85.8994 48.5964H87.7507C88.1209 48.5964 88.3986 48.9667 88.3523 49.3369L87.797 51.9287C87.7044 52.2064 87.473 52.3916 87.1953 52.3916Z" stroke="#FFF399" stroke-width="1.6927" stroke-miterlimit="10" stroke-linecap="round" stroke-linejoin="round"/>
<path d="M68.1271 66.6465C68.0808 66.0911 67.8957 65.6283 67.618 65.258C67.618 65.258 62.8509 58.5008 60.8145 55.5851C58.6855 52.4842 56.8806 50.818 56.8343 50.7255L56.7417 50.5866C54.8441 48.3651 51.373 48.2262 49.1052 50.4015C46.8374 52.5767 46.7911 56.0479 48.92 58.038L62.8046 69.6548C63.4063 70.3028 64.3782 70.5342 65.4427 70.2102C66.97 69.7474 68.2196 68.1738 68.1271 66.6465Z" fill="#4722AF"/>
<path d="M60.8145 55.5388C60.0277 54.3818 59.2409 53.4098 58.593 52.623L57.2045 54.3355L60.398 57.5289L62.1567 57.6215C61.7402 56.9273 61.2773 56.233 60.8145 55.5388Z" fill="#5D3EBC"/>
<path d="M77.5224 53.4099C78.3092 52.9008 79.3737 53.0396 79.9753 53.8264C80.253 54.1967 80.3919 54.7058 80.3456 55.1686C80.2993 55.6314 80.0216 56.0942 79.6514 56.3719C79.2811 56.6496 78.772 56.7885 78.3092 56.7422C77.8463 56.6959 77.3835 56.4182 77.1058 56.0479C76.8281 55.6777 76.6893 55.1686 76.7356 54.7058C76.7819 54.2429 77.0596 53.7801 77.4298 53.5024C77.4298 53.4562 77.4761 53.4562 77.5224 53.4099Z" fill="#E7C3B8"/>
<path d="M77.1058 53.9189L75.3471 56.3256L76.8744 57.8066L79.5588 56.3256L77.1058 53.9189Z" fill="#E7C3B8"/>
<path d="M78.5406 58.3618C78.5406 58.3618 71.3206 65.3041 69.6081 67.0166C67.8957 68.729 66.6461 69.5621 66.5998 69.6084L66.5535 69.6547C65.2576 70.7191 63.3138 70.5803 62.2493 69.2844C61.1848 67.9885 61.3237 66.0447 62.6196 64.9802L75.5785 55.0295L78.5406 58.3618Z" fill="#4722AF"/>
<path d="M77.8926 59.3339L78.772 58.3619L75.7636 54.752L74.6066 55.3999L77.8926 59.3339Z" fill="#470A8D"/>
<path d="M73.5421 56.5107L76.5967 60.2133C76.319 60.4447 76.0876 60.7224 75.8099 61.0001L72.6165 57.205L73.5421 56.5107Z" fill="#BFC8D9"/>
<path d="M24.946 69.6084C25.5014 69.5621 25.9642 69.377 26.3344 69.0993C26.3344 69.0993 33.0916 64.3323 36.0074 62.2959C39.1083 60.1669 40.7744 58.3619 40.867 58.3156L41.0058 58.223C43.2274 56.3255 43.3662 52.8543 41.191 50.5865C39.0157 48.3187 35.5446 48.2724 33.5544 50.4014L21.9376 64.286C21.2897 64.8876 21.0583 65.8596 21.3823 66.9241C21.7988 68.4514 23.4187 69.701 24.946 69.6084Z" fill="#5D3EBC"/>
<path d="M36.0074 62.2958C37.1644 61.509 38.1363 60.7222 38.9231 60.0743L37.2107 58.6858L34.0172 61.8793L33.9247 63.638C34.6189 63.2214 35.3594 62.7586 36.0074 62.2958Z" fill="#470A8D"/>
<path d="M33.7395 123.481L40.0802 123.573V121.444L35.8685 121.398L33.4619 122.509C33.2767 122.601 33.1379 122.786 33.1379 122.972C33.1379 123.203 33.4156 123.481 33.7395 123.481Z" fill="#2B1D5E"/>
<path d="M37.5809 123.203C38.5778 123.203 39.3859 122.395 39.3859 121.398C39.3859 120.401 38.5778 119.593 37.5809 119.593C36.5841 119.593 35.7759 120.401 35.7759 121.398C35.7759 122.395 36.5841 123.203 37.5809 123.203Z" fill="#2B1D5E"/>
<path d="M51.4453 121.752C51.6434 120.775 51.0119 119.822 50.0349 119.624C49.0579 119.426 48.1053 120.058 47.9072 121.035C47.7091 122.012 48.3406 122.964 49.3176 123.162C50.2946 123.36 51.2473 122.729 51.4453 121.752Z" fill="#2B1D5E"/>
<path d="M53.5946 123.573H47.2076V121.444H51.4656L53.9185 122.555C54.1037 122.648 54.2425 122.833 54.2425 123.018C54.2425 123.342 53.9648 123.573 53.5946 123.573Z" fill="#2B1D5E"/>
<path d="M44.1263 76.6996C44.5429 75.144 43.6196 73.5452 42.064 73.1286C40.5084 72.712 38.9097 73.6354 38.4931 75.1909C38.0765 76.7465 38.9998 78.3453 40.5554 78.7619C42.111 79.1785 43.7097 78.2551 44.1263 76.6996Z" fill="#470A8D"/>
<path d="M50.8176 78.865C52.428 78.865 53.7334 77.5596 53.7334 75.9492C53.7334 74.3389 52.428 73.0334 50.8176 73.0334C49.2073 73.0334 47.9019 74.3389 47.9019 75.9492C47.9019 77.5596 49.2073 78.865 50.8176 78.865Z" fill="#492CC1"/>
<path d="M53.8722 73.0334L53.7334 75.9492V76.0881C53.6408 77.6616 52.3912 78.865 50.8176 78.865H41.3298C39.7562 78.865 38.5066 77.6616 38.4141 76.0881V75.9492L38.2752 73.0334H53.8722Z" fill="#470A8D"/>
<path d="M46.0506 75.9492H55.0756L52.8541 121.398H46.0043L46.0506 75.9492Z" fill="#5D3EBC"/>
<path d="M34.4801 121.259L37.1182 75.4402L47.3465 76.7824L40.7282 121.722L34.4801 121.259Z" fill="#5D3EBC"/>
<path d="M46.1432 121.398L45.6804 87.3346L47.5779 78.7725L46.606 108.809L46.1432 121.398Z" fill="#4722AF"/>
<path opacity="0.2" d="M54.7979 82.1509L36.7016 82.1972L36.6091 84.6964L54.6591 84.3724L54.7979 82.1509Z" fill="#170F3A"/>
<path d="M34.8966 114.224H41.8389L41.6538 115.474H34.8041L34.8966 114.224Z" fill="#BFC8D9"/>
<path d="M34.9892 112.419H42.1166L41.8852 113.808H34.8966L34.9892 112.419Z" fill="#BFC8D9"/>
<path d="M53.2243 113.808H46.0043V112.419H53.2705L53.2243 113.808Z" fill="#BFC8D9"/>
<path d="M53.1317 115.474H46.0043V114.224H53.2243L53.1317 115.474Z" fill="#BFC8D9"/>
<path d="M36.1925 82.984H54.3814C55.2607 82.984 56.0475 82.3361 56.1401 81.4104L57.112 71.8764L58.2691 63.2216C58.5005 61.0927 58.5467 58.9174 58.3153 56.7421L57.9451 53.5024C57.6674 50.7718 55.3533 48.7354 52.6226 48.7354H37.8587C35.128 48.7354 32.8139 50.818 32.5363 53.5487L32.2123 56.881C32.0272 58.9174 32.0272 60.9538 32.2586 62.9902L34.3875 81.3642C34.5727 82.2898 35.3132 82.984 36.1925 82.984Z" fill="#5D3EBC"/>
<path d="M58.3616 62.481C58.3616 62.7124 58.3153 62.9438 58.269 63.2215L58.2228 63.638H32.3974L32.3048 63.0363C32.3048 62.8512 32.2585 62.6661 32.2585 62.481H58.3616Z" fill="#BFC8D9"/>
<path d="M58.4079 61.7405H32.2122C32.166 61.3703 32.166 60.9538 32.166 60.5835H58.5004C58.4541 61 58.4541 61.3703 58.4079 61.7405Z" fill="#BFC8D9"/>
<path d="M48.3184 51.2808H46.0043V82.4748H48.3184V51.2808Z" fill="#4722AF"/>
<path d="M47.6241 52.7156C47.8031 52.7156 47.9481 52.5705 47.9481 52.3916C47.9481 52.2127 47.8031 52.0676 47.6241 52.0676C47.4452 52.0676 47.3002 52.2127 47.3002 52.3916C47.3002 52.5705 47.4452 52.7156 47.6241 52.7156Z" fill="#340775"/>
<path d="M47.6241 58.2695C47.8031 58.2695 47.9481 58.1245 47.9481 57.9456C47.9481 57.7666 47.8031 57.6216 47.6241 57.6216C47.4452 57.6216 47.3002 57.7666 47.3002 57.9456C47.3002 58.1245 47.4452 58.2695 47.6241 58.2695Z" fill="#340775"/>
<path d="M47.6241 63.7769C47.8031 63.7769 47.9481 63.6318 47.9481 63.4529C47.9481 63.274 47.8031 63.1289 47.6241 63.1289C47.4452 63.1289 47.3002 63.274 47.3002 63.4529C47.3002 63.6318 47.4452 63.7769 47.6241 63.7769Z" fill="#340775"/>
<path d="M47.6241 69.3308C47.8031 69.3308 47.9481 69.1858 47.9481 69.0068C47.9481 68.8279 47.8031 68.6829 47.6241 68.6829C47.4452 68.6829 47.3002 68.8279 47.3002 69.0068C47.3002 69.1858 47.4452 69.3308 47.6241 69.3308Z" fill="#340775"/>
<path d="M47.6241 74.8384C47.8031 74.8384 47.9481 74.6933 47.9481 74.5144C47.9481 74.3355 47.8031 74.1904 47.6241 74.1904C47.4452 74.1904 47.3002 74.3355 47.3002 74.5144C47.3002 74.6933 47.4452 74.8384 47.6241 74.8384Z" fill="#340775"/>
<path d="M47.6241 80.3459C47.8031 80.3459 47.9481 80.2009 47.9481 80.022C47.9481 79.843 47.8031 79.698 47.6241 79.698C47.4452 79.698 47.3002 79.843 47.3002 80.022C47.3002 80.2009 47.4452 80.3459 47.6241 80.3459Z" fill="#340775"/>
<path d="M37.8163 73.3267L42.537 73.3267L42.537 73.0953L37.8163 73.0953L37.8163 73.3267Z" fill="#470A8D"/>
<path d="M42.5278 74.6449L42.528 73.0713L42.2965 73.0713L42.2964 74.6449L42.5278 74.6449Z" fill="#470A8D"/>
<path d="M56.0938 73.0796H51.373V73.311H56.0938V73.0796Z" fill="#470A8D"/>
<path d="M51.6416 74.6488L51.6415 73.0752L51.4101 73.0752L51.4102 74.6488L51.6416 74.6488Z" fill="#470A8D"/>
<path d="M49.4755 48.6889H40.6819V47.3005C40.6819 47.0228 40.867 46.7451 41.1447 46.6525C43.6439 45.6806 46.5597 45.6806 49.0589 46.6525C49.3366 46.7451 49.5218 47.0228 49.5218 47.3005L49.4755 48.6889Z" fill="#470A8D"/>
<path d="M41.3298 48.5039L43.1348 51.3271C43.1348 51.3271 46.0506 52.2528 46.4671 52.1602C46.8837 52.1139 47.3928 51.5122 47.6705 51.1883C47.9482 50.8643 49.3366 48.1799 49.3366 48.1799L41.3298 48.5039Z" fill="#340775"/>
<path d="M45.1712 51.4196C43.5977 51.4196 42.3018 50.1237 42.3018 48.5501V41.5615H47.9944V48.5964C48.0407 50.17 46.7448 51.4196 45.1712 51.4196Z" fill="#E7C3B8"/>
<path d="M47.9944 48.3652L43.8753 46.2362L44.0604 44.0146L47.9944 44.2461V48.3652Z" fill="#DF9D95"/>
<path d="M49.7994 39.1087L47.7167 39.2013L47.3928 33.1846L49.4755 33.0921C51.1416 32.9995 52.5763 34.2954 52.6689 35.9616C52.7615 37.6277 51.4656 39.0624 49.7994 39.1087Z" fill="#683716"/>
<path d="M44.0142 44.8477L41.839 44.9403C40.6356 44.9866 39.6174 44.0609 39.5249 42.8576L39.3397 38.7385L43.7365 38.5071L44.0142 44.8477Z" fill="#683716"/>
<path d="M48.8738 46.7914L46.1894 46.9303C43.9679 47.0228 42.1166 45.3567 41.9778 43.1351L41.515 34.5267L51.3267 34.0176L51.8358 43.5054C51.9284 45.2641 50.5862 46.6988 48.8738 46.7914Z" fill="#E7C3B8"/>
<path d="M43.3662 32.444L44.0142 32.3977L44.2919 37.859C44.3382 38.5995 43.7828 39.2012 43.0423 39.2474L39.3397 39.4326L39.2471 37.0259C39.1083 34.6192 40.9596 32.5828 43.3662 32.444Z" fill="#683716"/>
<path d="M41.8852 41.978L43.1811 41.9318L43.1348 40.6359C43.0886 39.8953 42.4869 39.34 41.7464 39.3862C41.0059 39.4325 40.4505 40.0342 40.4968 40.7747C40.5431 41.4689 41.191 42.0243 41.8852 41.978Z" fill="#E7C3B8"/>
<path d="M49.9383 42.626C49.9383 43.4128 49.3366 44.0144 48.5961 44.0607C47.8556 44.0607 47.2076 43.4591 47.2076 42.6723L49.9383 42.626Z" fill="white"/>
<path d="M46.7911 39.7103C47.0723 39.7103 47.3002 39.4824 47.3002 39.2012C47.3002 38.9201 47.0723 38.6921 46.7911 38.6921C46.5099 38.6921 46.282 38.9201 46.282 39.2012C46.282 39.4824 46.5099 39.7103 46.7911 39.7103Z" fill="#683716"/>
<path d="M50.2159 39.7103C50.4971 39.7103 50.725 39.4824 50.725 39.2012C50.725 38.9201 50.4971 38.6921 50.2159 38.6921C49.9348 38.6921 49.7068 38.9201 49.7068 39.2012C49.7068 39.4824 49.9348 39.7103 50.2159 39.7103Z" fill="#683716"/>
<path d="M47.439 37.4888C47.4853 37.6276 47.3928 37.7665 47.2539 37.7665L45.2638 37.9979C45.3101 37.7665 45.4952 37.5814 45.7266 37.5351L47.2076 37.35C47.3002 37.3037 47.3928 37.3962 47.439 37.4888Z" fill="#683716"/>
<path d="M49.4755 37.4887C49.4292 37.6275 49.5218 37.7664 49.6606 37.7664L51.6507 37.9978C51.6044 37.7664 51.4193 37.5813 51.1879 37.535L49.7069 37.3499C49.568 37.3499 49.4755 37.3961 49.4755 37.4887Z" fill="#683716"/>
<path d="M44.1993 35.4524L52.2524 35.0821C53.0854 35.0358 53.7334 34.3416 53.6871 33.4622C53.6408 32.6291 52.9466 31.9812 52.0672 32.0275L43.3662 32.444L44.1993 35.4524Z" fill="#683716"/>
<path d="M46.9763 49.2445L47.1614 51.7437C47.1614 51.7437 49.4292 50.2627 49.4755 48.6891V47.6709C49.4755 47.4395 49.1515 47.3469 49.0127 47.5321C48.5961 48.0875 47.8556 48.9205 46.9763 49.2445Z" fill="#4722AF"/>
<path d="M46.4671 52.1601L46.4208 49.2906C46.4208 49.2906 44.0605 49.198 42.9034 48.6889C42.2555 48.4112 41.5612 47.8558 41.1447 47.4393C40.9596 47.2542 40.6819 47.393 40.6819 47.6244V48.6889C40.6819 48.6889 39.7099 51.4658 46.4671 52.1601Z" fill="#4722AF"/>
<path d="M32.1197 59.3801L37.4421 82.9377H36.1925C35.3132 82.9377 34.5264 82.2897 34.4338 81.3641L32.166 62.9901C32.0271 61.8331 32.1197 60.5835 32.1197 59.3801Z" fill="#4722AF"/>
<path opacity="0.29" d="M29.0651 81.5493C30.1758 83.1692 33.2305 84.4188 36.0537 85.0667C36.6553 85.2056 37.7198 85.4833 38.9694 85.5758C40.5893 85.7147 42.7645 85.6221 43.5051 85.3907C44.6158 84.9742 45.3101 82.9378 45.2638 81.9195C45.2175 81.179 44.7084 80.8088 44.4307 80.6236C44.4307 80.5774 44.4307 80.5311 44.4307 80.5311C44.3381 79.1426 44.3381 78.8187 44.2456 77.8004C44.1993 77.5228 44.153 77.1525 44.1067 76.6897C43.9679 75.5326 43.829 74.8847 43.7365 74.5607C43.9679 74.5607 44.153 74.5607 44.3381 74.5607C45.3101 74.5607 46.0506 74.4219 46.282 74.1904C46.9762 73.3574 46.8374 72.3854 44.5233 70.5342C41.5149 68.1275 37.9512 67.6647 37.9512 67.6647C36.609 67.4333 35.3594 67.5721 34.2949 67.7572C34.2487 67.7572 34.2024 67.7572 34.2024 67.7572C34.2024 67.7572 32.7676 68.0812 32.4437 68.2201C32.4437 68.2201 32.4899 68.2201 32.5825 68.2201C31.9346 68.4515 31.518 68.6829 31.518 68.6829C30.7312 69.0531 30.2684 69.3771 30.2684 69.3771C30.2684 69.3771 28.4171 70.9507 28.0006 73.4037C27.6303 75.8566 27.6766 79.5592 29.0651 81.5493ZM44.2456 81.3179L44.1993 81.3642C44.1993 81.3179 44.1993 81.3179 44.2456 81.3179Z" fill="#170F3A"/>
<path d="M28.8799 69.1457C28.8799 69.1457 27.0287 70.7193 26.6121 73.1722C26.1956 75.6252 26.2419 79.3278 27.6303 81.3642C29.6667 84.3262 38.1826 85.9924 39.9413 85.2519C41.7001 84.5113 42.5794 82.9378 42.7183 82.151C42.8571 81.3642 42.672 80.6699 42.672 80.6699C42.9959 78.4484 42.9497 78.6335 42.7183 76.5508C42.4868 74.5144 42.2092 74.0979 42.2092 74.0979C42.2092 74.0979 41.3761 70.4879 38.0901 68.544C33.647 65.906 28.8799 69.1457 28.8799 69.1457Z" fill="#3A0A7F"/>
<path d="M42.8571 80.3923C42.8571 80.3923 43.829 80.7163 43.8753 81.7808C43.9216 82.799 43.2274 84.8817 42.1166 85.252C41.3298 85.5296 39.2008 85.5759 37.581 85.4371C35.776 85.2982 34.2487 84.7891 34.2487 84.7891C34.2487 84.7891 38.1363 85.0205 38.6917 84.5114C39.2471 84.0023 38.8306 81.5494 38.8306 81.5494C38.8306 81.5494 40.4967 81.6882 41.7463 81.5031C42.6257 81.3643 43.2737 81.0403 42.8571 80.3923Z" fill="#4D11A3"/>
<path d="M42.1166 73.8665C42.1629 74.0053 42.1629 74.0979 42.1629 74.0979C42.1629 74.0979 42.4406 74.5144 42.672 76.5508C42.9034 78.5872 42.9034 78.6335 42.996 80.3922C42.996 80.3922 43.1811 80.9939 42.7183 81.179C41.191 81.8732 38.9694 81.6418 36.933 81.2253C36.8868 78.8186 37.0719 76.4582 37.257 74.0516C39.5711 74.0979 41.191 74.0053 42.1166 73.8665Z" fill="#1C1347"/>
<path d="M31.1015 74.9309C31.7957 73.959 33.1379 73.4499 34.8503 73.8201C35.3131 73.8664 35.7759 73.9127 36.3313 73.959C36.7016 74.0052 37.0256 74.0052 37.3495 74.0052C37.5809 75.44 37.4884 78.726 37.0256 81.179C35.6371 80.9013 34.3412 80.4847 33.4156 80.1608C32.2122 79.5128 31.4717 78.726 31.0552 77.9392C30.4072 76.8747 30.4998 75.764 31.1015 74.9309Z" fill="#0E0A30"/>
<path d="M36.5628 67.4333C36.5628 67.4333 40.1265 67.9424 43.1348 70.3028C45.4489 72.1541 45.5878 73.126 44.8935 73.9591C44.1993 74.7922 37.9512 74.0516 36.3314 73.9128C34.7115 73.7739 34.7115 73.7739 34.7115 73.7739C34.7115 73.7739 39.5248 74.3756 38.5066 72.0615C37.8124 70.4879 35.6834 69.4697 33.9247 68.868C32.166 68.3127 30.1758 68.4052 30.1758 68.4052C30.1758 68.4052 31.0089 67.9887 32.2585 67.6184C33.3693 67.387 34.8966 67.1556 36.5628 67.4333Z" fill="#4D11A3"/>
<path d="M40.543 77.4765C40.543 77.6616 40.6819 77.7542 40.867 77.7542C41.0521 77.7542 41.1447 77.6153 41.1447 77.4302L41.0058 75.3475C41.0058 75.1624 40.867 75.0698 40.6819 75.0698C40.4967 75.0698 40.4042 75.2087 40.4042 75.3938L40.543 77.4765Z" fill="#6210B1"/>
<path d="M41.4686 79.4204C41.4686 79.6055 41.6075 79.6981 41.7926 79.6981C41.9777 79.6981 42.0703 79.5593 42.0703 79.3741L41.8852 75.4864C41.8852 75.3013 41.7463 75.2087 41.5612 75.2087C41.3761 75.2087 41.2835 75.3476 41.2835 75.5327L41.4686 79.4204Z" fill="#6210B1"/>
<path d="M31.0552 68.0349C31.0552 68.0349 34.1561 67.8498 37.2107 68.6829C40.2653 69.5622 42.5331 71.6912 42.5331 72.8483C42.5331 74.0053 41.3761 74.3293 41.3761 74.3293C41.3761 74.3293 42.8108 74.4681 43.2736 74.283C43.7364 74.1442 45.1249 71.5524 40.7281 69.3771C36.2388 67.1556 32.8139 67.5258 32.8139 67.5258C32.8139 67.5258 31.3791 67.8961 31.0552 68.0349Z" fill="#FFD00D"/>
<path d="M44.1117 73.4615C44.5536 72.9314 44.3548 72.0373 43.6676 71.4645C42.9804 70.8916 42.0651 70.857 41.6232 71.3871C41.1813 71.9172 41.3802 72.8113 42.0673 73.3841C42.7545 73.957 43.6698 73.9916 44.1117 73.4615Z" fill="#FFD00D"/>
<path d="M41.0058 82.4286C40.9133 82.4286 40.867 82.5212 40.867 82.5675C40.867 82.66 40.9596 82.7063 41.0058 82.7063L41.9315 82.66C42.0241 82.66 42.0703 82.5675 42.0703 82.5212C42.0703 82.4286 41.9778 82.3823 41.9315 82.3823L41.0058 82.4286Z" fill="#2B1D5E"/>
<path d="M38.3677 79.2353C38.8769 80.022 38.738 81.0865 37.9512 81.6882C37.581 81.9659 37.0719 82.1047 36.609 82.0585C36.1462 82.0122 35.6834 81.7345 35.4057 81.3642C35.128 80.994 34.9892 80.4849 35.0354 80.022C35.0817 79.5592 35.3594 79.0964 35.7297 78.8187C36.0999 78.541 36.609 78.4022 37.0719 78.4485C37.5347 78.4947 37.9975 78.7724 38.2752 79.1427C38.3215 79.189 38.3215 79.2353 38.3677 79.2353Z" fill="#E7C3B8"/>
<path d="M37.8586 78.8649L35.452 77.1062L33.9709 78.6335L35.4983 81.2716L37.8586 78.8649Z" fill="#E7C3B8"/>
<path d="M33.4156 80.2533C33.4156 80.2533 26.4733 73.0333 24.7609 71.3209C23.0484 69.6084 22.2153 68.3588 22.1691 68.3125L22.1228 68.2662C21.0583 66.9703 21.1971 65.0265 22.493 63.962C23.7889 62.8975 25.7328 63.0364 26.7973 64.3323L36.7479 77.2912L33.4156 80.2533Z" fill="#5D3EBC"/>
<path d="M32.4437 79.6515L33.4156 80.5309L37.0719 77.5225L36.3776 76.3655L32.4437 79.6515Z" fill="#4722AF"/>
<path d="M35.2669 75.3011L31.5643 78.3557C31.3329 78.0781 31.0552 77.8466 30.7775 77.569L34.5726 74.3755L35.2669 75.3011Z" fill="#BFC8D9"/>
<path d="M50.9102 59.1024C50.7251 59.1024 50.4937 59.0099 50.4011 58.871C50.4011 58.871 50.4474 58.6859 50.5862 58.6859C50.6325 58.6859 50.6788 58.7322 50.7251 58.7322C50.7714 58.7785 50.8639 58.7785 50.9102 58.7785C51.0953 58.7785 51.1416 58.6396 51.1416 58.5008V58.3619C51.0953 58.3619 51.0028 58.4545 50.8176 58.4545C50.4937 58.4545 50.3085 58.1768 50.3085 57.8528C50.3085 57.5288 50.4937 57.2511 50.9102 57.2511C51.3267 57.2511 51.4656 57.5288 51.4656 57.8991C51.4656 57.9917 51.4656 58.4082 51.4656 58.4082C51.5119 58.9173 51.2805 59.1024 50.9102 59.1024ZM52.2987 58.3156C52.3912 58.3156 52.4375 58.3156 52.4838 58.2694C52.5301 58.2694 52.5764 58.2231 52.6226 58.2231C52.7152 58.2231 52.7615 58.3619 52.7615 58.3619C52.7152 58.4545 52.4838 58.547 52.2524 58.547C51.8821 58.547 51.6507 58.2694 51.6507 57.8991C51.6507 57.4363 51.9747 57.2049 52.2524 57.2049C52.5764 57.2049 52.7615 57.39 52.7615 57.6214C52.7615 57.8065 52.6689 57.9917 52.2524 57.9917C52.0673 57.9917 51.9747 57.9454 51.9747 57.9454C51.9747 58.2694 52.1598 58.3156 52.2987 58.3156ZM53.4557 58.5933C53.1317 58.5933 52.9466 58.3619 52.9466 57.9917V57.1123C52.9466 57.0197 52.9929 56.9272 53.0392 56.8809C53.0855 56.8346 53.178 56.7883 53.2706 56.7883V56.8346C53.2706 56.8346 53.2706 56.8809 53.2706 56.9272C53.2706 56.9735 53.2706 57.0197 53.2706 57.066V57.2511H53.6408C53.6408 57.3437 53.6408 57.39 53.5946 57.4363C53.5483 57.4826 53.502 57.5288 53.4094 57.5288H53.3169V57.8991C53.3169 57.9917 53.3169 58.0379 53.3631 58.0842C53.3631 58.1305 53.4557 58.2694 53.5946 58.2694C53.6871 58.2694 53.7334 58.2694 53.7797 58.2694C53.7797 58.2694 53.7797 58.3156 53.7797 58.3619C53.7334 58.5008 53.6408 58.5933 53.4557 58.5933ZM53.9185 56.9272C53.9185 56.8809 53.9648 56.8809 54.0111 56.8346C54.0574 56.8346 54.0574 56.7883 54.1037 56.7883C54.1499 56.7883 54.1499 56.7883 54.1962 56.7883C54.2425 56.7883 54.2425 56.8346 54.2425 56.8346C54.2425 56.8809 54.2425 56.8809 54.2425 56.9272C54.2425 56.9735 54.2425 56.9735 54.1962 57.0197C54.1499 57.066 54.1037 57.1123 54.0111 57.1123C53.9648 57.1123 53.9648 57.1123 53.9185 57.1123C53.8722 57.1123 53.8722 57.066 53.8722 57.066C53.8722 57.0197 53.8722 57.0197 53.8722 56.9735C53.9185 57.0197 53.9185 56.9735 53.9185 56.9272ZM54.2425 58.5933C54.0574 58.5933 53.9185 58.4545 53.9185 58.2694V57.6214C53.9185 57.5288 53.9648 57.4363 54.0111 57.39C54.0574 57.3437 54.1499 57.2974 54.2888 57.2974V57.3437C54.2888 57.3437 54.2888 57.39 54.2888 57.4363C54.2888 57.4826 54.2888 57.5288 54.2888 57.5751V58.1768C54.2888 58.2694 54.3351 58.3156 54.4276 58.3156C54.4739 58.3156 54.4739 58.3156 54.5202 58.3156C54.5202 58.3156 54.5202 58.3619 54.5202 58.4082C54.4739 58.547 54.3351 58.5933 54.2425 58.5933ZM55.1219 57.5751C54.9367 57.5751 54.9367 57.714 54.9367 57.8528V58.3156C54.9367 58.3619 54.9367 58.4082 54.9367 58.4545C54.9367 58.5008 54.9367 58.5008 54.9367 58.547V58.5933C54.8442 58.5933 54.7516 58.5933 54.659 58.547C54.6128 58.5008 54.5665 58.4082 54.5665 58.2694V57.8991C54.5665 57.7603 54.5665 57.6677 54.6128 57.6214C54.659 57.5288 54.7053 57.4826 54.7516 57.4363C54.7979 57.39 54.8905 57.3437 54.9367 57.3437C55.0293 57.3437 55.0756 57.2974 55.1681 57.2974H55.307C55.307 57.3437 55.307 57.39 55.307 57.39C55.3533 57.5288 55.2607 57.5751 55.1219 57.5751Z" fill="#FFD300"/>
<path d="M52.4838 57.714C52.4838 57.6215 52.4375 57.5752 52.2524 57.5752C52.0672 57.5752 51.9747 57.714 51.9747 57.8529C51.9747 57.8529 52.0672 57.8992 52.2524 57.8992C52.4375 57.8529 52.4838 57.8066 52.4838 57.714Z" fill="#5D3EBC"/>
<path d="M50.9102 57.5752C50.7714 57.5752 50.6325 57.6678 50.6325 57.8992C50.6325 58.0843 50.7251 58.1769 50.9102 58.1769C51.049 58.1769 51.1416 58.0843 51.1416 57.8529C51.1416 57.6678 51.049 57.5752 50.9102 57.5752Z" fill="#5D3EBC"/>
<path d="M52.8077 57.7139C52.8077 57.4362 52.5763 57.2974 52.2986 57.2974C52.0209 57.2974 51.697 57.5288 51.697 57.9916C51.697 58.3619 51.9284 58.6395 52.2986 58.6395C52.53 58.6395 52.7614 58.5007 52.8077 58.4544C52.8077 58.4544 52.7614 58.3156 52.6689 58.3156C52.6226 58.3156 52.5763 58.3156 52.53 58.3618C52.4838 58.3618 52.4375 58.4081 52.3449 58.4081C52.2523 58.4081 52.0672 58.3618 52.0672 58.1304C52.0672 58.1304 52.1598 58.1767 52.3449 58.1767C52.6689 58.0842 52.8077 57.899 52.8077 57.7139ZM52.2986 57.5751C52.4375 57.5751 52.53 57.6676 52.53 57.7139C52.53 57.8065 52.4375 57.8527 52.2986 57.8527C52.1135 57.8527 52.0209 57.8065 52.0209 57.8065C52.0209 57.7139 52.1135 57.5751 52.2986 57.5751Z" fill="#FFD300"/>
<path d="M53.5483 58.3157C53.4094 58.3157 53.3169 58.1769 53.3169 58.1306C53.3169 58.0843 53.2706 57.9918 53.2706 57.9455V57.5752H53.3631C53.4557 57.5752 53.502 57.5289 53.5483 57.4827C53.5946 57.4364 53.5946 57.3901 53.5946 57.2975H53.2243V57.1124C53.2243 57.0661 53.2243 57.0198 53.2243 56.9736C53.2243 56.9273 53.2243 56.9273 53.2243 56.881V56.8347C53.1317 56.8347 53.0392 56.881 52.9929 56.9273C52.9466 56.9736 52.9003 57.0661 52.9003 57.1587V58.038C52.9003 58.4083 53.0855 58.6397 53.4094 58.6397C53.5483 58.6397 53.6871 58.5471 53.6871 58.4083C53.6871 58.362 53.6871 58.362 53.6871 58.3157C53.6871 58.3157 53.6408 58.3157 53.5483 58.3157Z" fill="#FFD300"/>
<path d="M54.0111 57.2048C54.0574 57.2048 54.0574 57.2048 54.1037 57.2048C54.15 57.2048 54.2425 57.1586 54.2888 57.1123C54.2888 57.066 54.3351 57.066 54.3351 57.0197C54.3351 56.9734 54.3351 56.9734 54.3351 56.9271C54.3351 56.8809 54.2888 56.8809 54.2888 56.8809C54.2425 56.8809 54.2425 56.8809 54.1962 56.8809C54.15 56.8809 54.15 56.8809 54.1037 56.9271C54.0574 56.9271 54.0574 56.9734 54.0111 57.0197C54.0111 57.066 53.9648 57.066 53.9648 57.1123C53.9648 57.1586 53.9648 57.1586 53.9648 57.2048C53.9648 57.1586 53.9648 57.1586 54.0111 57.2048Z" fill="#FFD300"/>
<path d="M54.3814 58.3619C54.2888 58.3619 54.2425 58.3157 54.2425 58.2231V57.6214C54.2425 57.5752 54.2425 57.5289 54.2425 57.4826C54.2425 57.4363 54.2425 57.4363 54.2425 57.39V57.3438C54.1499 57.3438 54.0574 57.39 53.9648 57.4363C53.9185 57.4826 53.8723 57.5752 53.8723 57.6677V58.3157C53.8723 58.5471 54.0111 58.6859 54.1962 58.6396C54.2888 58.6396 54.4276 58.5934 54.4276 58.4545C54.4276 58.4082 54.4276 58.3619 54.4276 58.3619C54.4276 58.3157 54.3814 58.3619 54.3814 58.3619Z" fill="#FFD300"/>
<path d="M55.1681 57.3438C55.1218 57.3438 55.0293 57.3437 54.9367 57.39C54.8442 57.39 54.7979 57.4363 54.7516 57.4826C54.7053 57.5289 54.659 57.5752 54.6127 57.6677C54.5665 57.7603 54.5665 57.8528 54.5665 57.9454V58.3157C54.5665 58.4082 54.5665 58.5471 54.659 58.5934C54.7516 58.6396 54.7979 58.6396 54.9367 58.6396V58.5934C54.9367 58.5934 54.9367 58.5471 54.9367 58.5008C54.9367 58.4545 54.9367 58.4082 54.9367 58.3619V57.8991C54.9367 57.8066 54.9367 57.6677 55.1218 57.6214C55.2144 57.6214 55.307 57.5752 55.307 57.4363C55.307 57.39 55.307 57.3438 55.307 57.3438H55.1681Z" fill="#FFD300"/>
<path d="M50.9102 57.2974C50.5399 57.2974 50.3085 57.5751 50.3085 57.899C50.3085 58.223 50.4937 58.5007 50.8176 58.5007C51.0028 58.5007 51.0953 58.4081 51.1416 58.4081V58.547C51.1416 58.7321 51.0953 58.8247 50.9102 58.8247C50.8176 58.8247 50.7714 58.7784 50.7251 58.7784C50.6788 58.7321 50.6325 58.7321 50.5862 58.7321C50.4474 58.7321 50.4011 58.9172 50.4011 58.9172C50.4937 59.0561 50.7251 59.1486 50.9102 59.1486C51.2805 59.1486 51.5119 58.9172 51.5119 58.5007C51.5119 58.5007 51.5119 58.0842 51.5119 57.9916C51.5119 57.5751 51.3267 57.2974 50.9102 57.2974ZM50.9102 58.1767C50.7714 58.1767 50.6325 58.0842 50.6325 57.899C50.6325 57.6676 50.7251 57.5751 50.9102 57.5751C51.049 57.5751 51.1416 57.6676 51.1416 57.899C51.1416 58.1304 51.049 58.1767 50.9102 58.1767Z" fill="#FFD300"/>
<path d="M68.775 76.4119V64.8877C68.775 64.5637 69.0527 64.3323 69.3304 64.3323H86.5473C86.8713 64.3323 87.1027 64.61 87.1027 64.8877V76.4119C87.1027 76.7358 86.825 76.9673 86.5473 76.9673H69.3304C69.0064 76.9673 68.775 76.7358 68.775 76.4119Z" fill="#5D3EBC"/>
<path d="M68.775 74.4216V76.4117C68.775 76.7357 69.0527 76.9671 69.3304 76.9671L86.5473 76.9208C86.8713 76.9208 87.1027 76.6431 87.1027 76.3654V65.4429C83.3076 69.6083 76.1339 73.6348 68.775 74.4216Z" fill="#4722AF"/>
<path d="M77.8463 69.9784C77.8463 69.423 77.3835 69.0527 76.7355 69.0527C76.0876 69.0527 75.4396 69.5156 75.4396 70.5338C75.4396 71.3206 75.9025 71.8759 76.6892 71.8759C77.1521 71.8759 77.6612 71.5982 77.7537 71.4594C77.7537 71.4594 77.6612 71.1354 77.4298 71.1354C77.2909 71.1354 77.1983 71.1817 77.1058 71.228C77.0132 71.2743 76.8744 71.3206 76.7355 71.3206C76.5041 71.3206 76.1339 71.228 76.1339 70.7652C76.1339 70.7652 76.319 70.8115 76.7355 70.8115C77.6149 70.7189 77.8463 70.3486 77.8463 69.9784ZM76.7355 69.6544C77.0595 69.6544 77.1983 69.8395 77.1983 69.9784C77.1983 70.1635 77.0595 70.2561 76.7355 70.2561C76.319 70.2561 76.1339 70.2098 76.1339 70.2098C76.1801 69.9321 76.3653 69.6544 76.7355 69.6544Z" fill="#FFD300"/>
<path d="M79.5124 71.2745C79.1885 71.2745 79.0496 70.9968 79.0033 70.9042C78.9571 70.8117 78.9571 70.6265 78.9571 70.4877V69.6546H79.1885C79.3736 69.6546 79.5124 69.6083 79.605 69.5158C79.6976 69.4232 79.7439 69.2844 79.7439 69.0992H78.9571V68.729C78.9571 68.5901 78.9571 68.4976 78.9571 68.4513C78.9571 68.3587 78.9571 68.3124 78.9571 68.2661C78.9571 68.2199 78.9571 68.1736 78.9571 68.1736C78.7257 68.1736 78.5405 68.2199 78.4017 68.3124C78.2628 68.405 78.2166 68.5901 78.2166 68.8215V70.6728C78.2166 71.4133 78.5868 71.9224 79.281 71.9224C79.605 71.9224 79.8827 71.7373 79.8827 71.4596C79.8827 71.367 79.8827 71.3208 79.8827 71.2745C79.7901 71.2282 79.6976 71.2745 79.5124 71.2745Z" fill="#FFD300"/>
<path d="M80.4381 68.8677C80.4844 68.914 80.5769 68.914 80.6232 68.914C80.7621 68.914 80.9009 68.8214 80.9935 68.6826C81.0398 68.6363 81.0398 68.5437 81.0398 68.4975C81.0398 68.4512 81.0398 68.3586 80.9935 68.3123C80.9472 68.266 80.9009 68.2198 80.8546 68.1735C80.8084 68.1272 80.7621 68.1272 80.6695 68.1272C80.6232 68.1272 80.5307 68.1272 80.4844 68.1735C80.4381 68.2198 80.3918 68.266 80.3455 68.3123C80.2993 68.3586 80.2993 68.4512 80.2993 68.4975C80.2993 68.5437 80.2993 68.6363 80.3455 68.6826C80.3455 68.7751 80.3918 68.8214 80.4381 68.8677Z" fill="#FFD300"/>
<path d="M81.2249 71.3208C81.086 71.3208 80.9934 71.2282 80.9934 71.0431V69.7009C80.9934 69.5621 80.9934 69.4695 80.9934 69.4232C80.9934 69.3306 80.9934 69.2844 80.9934 69.2381C80.9934 69.1918 80.9934 69.1455 80.9934 69.1455C80.762 69.1455 80.5769 69.1918 80.4381 69.2844C80.2992 69.3769 80.2529 69.562 80.2529 69.7935V71.1356C80.2529 71.5985 80.5769 71.8761 80.9472 71.8761C81.1786 71.8761 81.41 71.7373 81.41 71.5059C81.41 71.4133 81.41 71.3208 81.41 71.3208C81.3174 71.2745 81.3174 71.3208 81.2249 71.3208Z" fill="#FFD300"/>
<path d="M82.9836 69.099C82.8447 69.099 82.7059 69.099 82.5207 69.1453C82.3819 69.1916 82.243 69.2379 82.1042 69.3304C81.9654 69.423 81.8728 69.5618 81.8265 69.7007C81.7339 69.8858 81.7339 70.0709 81.7339 70.3486V71.0891C81.7339 71.3206 81.7802 71.552 81.9191 71.6445C82.0579 71.7834 82.243 71.7834 82.4744 71.7834C82.4744 71.7371 82.4744 71.6908 82.4744 71.6445C82.4744 71.5982 82.4744 71.552 82.4744 71.4594C82.4744 71.3668 82.4744 71.2743 82.4744 71.1817V70.2098C82.4744 69.9784 82.5207 69.7007 82.9373 69.6544C83.1687 69.6544 83.3538 69.5618 83.3538 69.2841C83.3538 69.2379 83.3538 69.099 83.3075 69.0527H82.9836V69.099Z" fill="#FFD300"/>
<path d="M73.8197 69.0527C72.9867 69.0527 72.5701 69.6544 72.5701 70.3486C72.5701 70.9966 72.9867 71.5982 73.6809 71.5982C74.0512 71.5982 74.2826 71.4594 74.3289 71.4131V71.7371C74.3289 72.1073 74.19 72.385 73.8197 72.385C73.6346 72.385 73.4958 72.3388 73.3569 72.2925C73.2644 72.2462 73.1718 72.1999 73.033 72.1999C72.7553 72.1999 72.6627 72.5702 72.6627 72.5702C72.8941 72.8479 73.3569 73.033 73.7735 73.033C74.5603 73.033 75.0231 72.5702 75.0231 71.6445C75.0231 71.6445 75.0231 70.7189 75.0231 70.58C75.0694 69.6544 74.6991 69.0527 73.8197 69.0527ZM73.8197 70.9966C73.4958 70.9966 73.2644 70.8115 73.2644 70.3486C73.2644 69.8858 73.4958 69.6544 73.8197 69.6544C74.1437 69.6544 74.3289 69.8395 74.3289 70.3023C74.3289 70.8114 74.0974 70.9966 73.8197 70.9966Z" fill="#FFD300"/>
<path d="M72.3387 65.3041L75.7636 57.4824C76.1802 56.6956 77.0132 56.1865 77.9389 56.1865C78.8645 56.1865 79.6976 56.6956 80.1141 57.4824L83.539 65.3041" stroke="#5D3EBC" stroke-width="1.5357" stroke-miterlimit="10"/>
<path d="M113.206 44.4773C113.206 46.4674 115.659 47.1154 115.983 50.6791C116.307 54.2428 113.9 53.5949 115.381 57.9916C116.862 62.3884 113.345 65.2116 107.652 65.7207C101.034 66.2761 94.4153 63.0827 96.2203 57.7602C98.0253 52.4378 99.9229 53.132 99.0435 50.3088C98.1642 47.4856 99.9692 47.4856 99.9229 44.6624C99.8766 41.7004 113.206 39.8028 113.206 44.4773Z" fill="#723F1C"/>
<path d="M113.206 57.7139H99.8303V42.9036C99.8303 39.2011 102.839 36.239 106.495 36.239C110.198 36.239 113.16 39.2473 113.16 42.9036L113.206 57.7139Z" fill="#723F1C"/>
<path d="M100.895 70.997C100.895 73.7276 103.07 75.9028 105.801 75.9028C108.531 75.9028 111.725 73.7276 111.725 70.997C111.725 68.2663 108.485 66.0911 105.801 66.0911C103.07 66.0911 100.895 68.2663 100.895 70.997Z" fill="#ED4F4F"/>
<path d="M81.5026 62.7586C81.3638 62.2032 81.734 61.6479 82.2894 61.509C82.8448 61.3702 83.4002 61.7404 83.539 62.2958C83.6779 62.8512 83.3076 63.4066 82.7522 63.5454C82.1968 63.6843 81.6415 63.314 81.5026 62.7586Z" fill="#E7C3B8"/>
<path d="M104.005 58.0464C105.392 57.4537 106.036 55.8491 105.443 54.4624C104.85 53.0758 103.246 52.4321 101.859 53.0248C100.473 53.6174 99.8289 55.222 100.422 56.6087C101.014 57.9954 102.619 58.6391 104.005 58.0464Z" fill="#FF9935"/>
<path d="M80.1142 61.1851C79.9753 61.1851 79.7902 61.1851 79.6514 61.2313C78.8646 61.4165 78.3555 62.2033 78.5406 62.9901C78.7257 63.7769 79.5125 64.286 80.2993 64.1008L82.7522 63.5454L82.6597 61.4628L80.1142 61.1851Z" fill="#E7C3B8"/>
<path d="M94.9244 64.6099C94.6467 65.6744 95.2947 66.7389 96.3592 67.0166C97.4237 67.2943 98.4881 66.6463 98.7658 65.5818C99.0435 64.5173 98.3956 63.4528 97.3311 63.1752C96.2666 62.8975 95.1558 63.5454 94.9244 64.6099Z" fill="#AF1445"/>
<path d="M100.571 53.9651L95.1096 64.1471L98.4419 66.2298L105.245 56.8809L100.571 53.9651Z" fill="#AF1445"/>
<path d="M96.2203 63.2679L82.6597 61.4629L82.2894 63.5456L95.8963 66.1837L96.2203 63.2679Z" fill="#E7C3B8"/>
<path d="M102.919 122.9C103.624 122.598 103.951 121.783 103.65 121.077C103.348 120.372 102.532 120.045 101.827 120.346C101.122 120.648 100.795 121.464 101.096 122.169C101.398 122.874 102.213 123.201 102.919 122.9Z" fill="#FF95A9"/>
<path d="M100.201 55.6312L100.895 70.9506H111.725L114.733 54.8444C115.011 53.7799 114.178 52.7617 113.113 52.7617H102.931C101.358 52.7617 100.108 54.1039 100.201 55.6312Z" fill="#C11845"/>
<path d="M104.221 57.9419C105.554 57.237 106.064 55.5848 105.359 54.2514C104.654 52.9181 103.002 52.4087 101.668 53.1136C100.335 53.8185 99.8257 55.4707 100.531 56.8041C101.235 58.1374 102.888 58.6468 104.221 57.9419Z" fill="#C11845"/>
<path d="M100.895 70.9968H105.245H111.725L112.234 71.4134C113.993 72.8018 114.039 74.9308 114.039 77.1986V79.3276C114.039 80.9475 113.484 82.2896 111.864 82.2896H103.348C101.728 82.2896 99.5989 80.9475 99.6452 79.3276V76.4581C99.6452 74.5143 100.062 72.663 100.895 70.9968Z" fill="#10348E"/>
<path d="M106.541 57.575L102.191 54.2427L98.6733 58.8709C98.4881 59.1486 98.303 59.4263 98.2104 59.7502C97.7939 61.185 98.627 62.7123 100.062 63.1751C101.172 63.4991 102.33 63.0825 103.024 62.2032L106.541 57.575Z" fill="#C11845"/>
<path d="M111.355 72.663C111.54 73.2184 112.188 73.4961 112.697 73.2647C113.252 73.0796 113.53 72.4316 113.298 71.9225C113.113 71.3671 112.465 71.0894 111.956 71.3209C111.447 71.506 111.169 72.1076 111.355 72.663Z" fill="#FF95A9"/>
<path d="M114.212 58.0097C115.572 57.3573 116.145 55.7262 115.493 54.3665C114.84 53.0068 113.209 52.4334 111.849 53.0858C110.49 53.7382 109.916 55.3693 110.569 56.729C111.221 58.0887 112.852 58.6621 114.212 58.0097Z" fill="#C11845"/>
<path d="M110.66 74.9771C110.799 74.9308 110.938 74.8382 111.077 74.7457L113.021 73.1258L112.002 71.3208L109.642 72.2002C108.855 72.4778 108.485 73.3572 108.763 74.0977C109.04 74.8845 109.873 75.2548 110.66 74.9771Z" fill="#E7C3B8"/>
<path d="M121.305 63.4992C120.472 62.7587 120.38 61.5091 121.12 60.676C121.861 59.8429 123.11 59.7504 123.943 60.4909C124.776 61.2314 124.869 62.481 124.128 63.3141C123.388 64.1472 122.138 64.2397 121.305 63.4992Z" fill="#C11845"/>
<path d="M114.733 53.3635L123.851 60.4447L121.629 63.7307L111.632 57.8992L114.733 53.3635Z" fill="#C11845"/>
<path d="M123.943 63.4991L113.067 73.0795L111.54 71.5984L121.12 60.7222L123.943 63.4991Z" fill="#E7C3B8"/>
<path d="M114.502 71.7836L112.836 70.1174L121.12 60.7222L123.943 63.4991L114.502 71.7836Z" fill="#C11845"/>
<path d="M84.6036 61.6941L84.187 64.0082L96.3592 67.0165L97.0534 63.1288L84.6036 61.6941Z" fill="#AF1445"/>
<path d="M105.523 79.2814C105.523 80.9013 104.968 82.2434 103.348 82.2434C101.728 82.2434 99.6452 80.9013 99.6452 79.2814C99.6452 77.6615 100.987 76.3193 102.607 76.3193C104.227 76.3193 105.523 77.6615 105.523 79.2814Z" fill="#10348E"/>
<path d="M114.039 79.0036C114.178 80.6235 113.761 82.0582 112.141 82.1971C110.521 82.3359 108.3 81.1326 108.161 79.5127C108.022 77.8928 109.226 76.4581 110.845 76.3193C112.465 76.1804 113.9 77.3837 114.039 79.0036Z" fill="#10348E"/>
<path d="M100.987 121.629H103.718V123.527H99.8766C99.5526 123.527 99.2749 123.249 99.2749 122.925C99.2749 122.694 99.3675 122.509 99.5526 122.416L100.987 121.629Z" fill="#40327A"/>
<path d="M105.708 96.5909C105.662 97.9794 104.459 99.0439 102.977 99.0439C101.496 99.0439 100.293 97.9331 100.339 96.5447C100.339 95.1562 101.589 94.0454 103.07 94.0454C104.551 94.0454 105.754 95.2025 105.708 96.5909Z" fill="#FF95A9"/>
<path d="M105.708 96.5909L103.718 121.629H100.987L100.339 96.4983L105.708 96.5909Z" fill="#10348E"/>
<path d="M106.819 79.4202L105.708 96.5908L100.339 96.7296L99.6452 79.559L106.819 79.4202Z" fill="#10348E"/>
<path d="M107.976 96.5909C108.022 97.9794 109.226 99.0439 110.707 99.0439C112.188 99.0439 113.391 97.9331 113.345 96.5447C113.345 95.1562 112.095 94.0454 110.614 94.0454C109.133 94.0454 107.976 95.2025 107.976 96.5909Z" fill="#FF95A9"/>
<path d="M107.976 96.5909L109.966 121.629H112.697L113.391 96.4983L107.976 96.5909Z" fill="#10348E"/>
<path d="M106.911 79.4202L107.976 96.5908L113.391 96.7296L114.085 79.559L106.911 79.4202Z" fill="#10348E"/>
<path d="M107.438 54.9398C108.636 54.4942 109.246 53.162 108.8 51.9641C108.355 50.7662 107.023 50.1562 105.825 50.6018C104.627 51.0473 104.017 52.3795 104.462 53.5775C104.908 54.7754 106.24 55.3853 107.438 54.9398Z" fill="#DF9D95"/>
<path d="M104.32 52.5767L108.948 52.947L109.642 44.9402L105.014 44.6162L104.32 52.5767Z" fill="#DF9D95"/>
<path d="M109.781 46.5598L108.809 46.4673L108.948 44.5234L109.92 44.616C110.475 44.6623 110.845 45.1251 110.799 45.6805C110.753 46.1896 110.29 46.6061 109.781 46.5598Z" fill="#E7C3B8"/>
<path d="M112.697 121.629H109.966V123.527H113.807C114.131 123.527 114.409 123.249 114.409 122.925C114.409 122.694 114.317 122.509 114.131 122.416L112.697 121.629Z" fill="#40327A"/>
<path d="M104.412 51.651L107.559 50.2163L108.624 48.2725L104.69 48.3187L104.412 51.651Z" fill="#D58781"/>
<path d="M105.616 38.8308L105.986 38.8771C108.3 39.0622 110.012 41.0523 109.827 43.3664L109.55 46.9301C109.364 49.2905 107.328 51.0492 104.968 50.8641H104.875C102.7 50.679 101.034 48.7814 101.219 46.6062L101.543 42.3945C101.682 40.2655 103.533 38.6919 105.616 38.8308Z" fill="#E7C3B8"/>
<path d="M109.873 43.9219H110.059L109.873 38.3218L103.394 38.5069C102.237 38.5532 101.358 39.4788 101.358 40.6359L101.404 41.4227H101.589C103.255 41.3764 104.875 41.8855 106.217 42.8111C107.328 43.5516 108.624 43.9682 109.873 43.9219Z" fill="#723F1C"/>
<path d="M105.43 47.5782C105.384 48.2261 104.829 48.689 104.181 48.6427C103.533 48.5964 103.07 48.041 103.116 47.3931L105.43 47.5782Z" fill="white"/>
<path d="M106.106 45.0791C106.31 45.0637 106.463 44.886 106.448 44.6821C106.432 44.4782 106.255 44.3253 106.051 44.3406C105.847 44.356 105.694 44.5337 105.709 44.7376C105.725 44.9415 105.902 45.0944 106.106 45.0791Z" fill="#723F1C"/>
<path d="M103.052 44.8474C103.256 44.8321 103.408 44.6543 103.393 44.4504C103.378 44.2465 103.2 44.0936 102.996 44.109C102.792 44.1243 102.639 44.302 102.655 44.5059C102.67 44.7099 102.848 44.8627 103.052 44.8474Z" fill="#723F1C"/>
<path d="M106.947 47.3442C107.275 47.2016 107.426 46.8199 107.283 46.4917C107.141 46.1635 106.759 46.013 106.431 46.1556C106.102 46.2982 105.952 46.6799 106.095 47.0081C106.237 47.3363 106.619 47.4868 106.947 47.3442Z" fill="#E2B1A7"/>
<path d="M102.269 46.7878C102.597 46.6452 102.747 46.2635 102.605 45.9353C102.462 45.6071 102.081 45.4566 101.752 45.5992C101.424 45.7418 101.274 46.1235 101.416 46.4517C101.559 46.7799 101.941 46.9304 102.269 46.7878Z" fill="#E2B1A7"/>
<path d="M111.725 70.997L113.993 59.1951L110.799 70.997H111.725Z" fill="#A50741"/>
</g>
<defs>
<clipPath id="clip0">
<rect width="150" height="150" fill="white" transform="translate(0 0.000244141)"/>
</clipPath>
</defs>
</svg>
