<svg width="154" height="150" viewBox="0 0 154 150" fill="none" xmlns="http://www.w3.org/2000/svg">
<g clip-path="url(#clip0)">
<path d="M132.243 128.587C160.793 100.037 160.793 53.7493 132.244 25.2C103.694 -3.34941 57.4065 -3.34922 28.8568 25.2004C0.307217 53.75 0.307014 100.038 28.8564 128.587C57.4057 157.137 103.694 157.136 132.243 128.587Z" fill="#F3F0FE"/>
<path d="M101.227 84.665L112.354 84.665L112.354 60.3768L101.227 60.3768L101.227 84.665Z" fill="white"/>
<path d="M101.227 57.6704L112.354 57.6704L112.354 47.145L101.227 47.145L101.227 57.6704Z" fill="white"/>
<path d="M87.6942 84.6653L98.8211 84.6653L98.8211 60.3771L87.6942 60.3771L87.6942 84.6653Z" fill="white"/>
<path d="M87.6942 57.6707L98.8211 57.6707L98.8211 47.1453L87.6942 47.1453L87.6942 57.6707Z" fill="white"/>
<path d="M135.475 84.665L146.602 84.665L146.602 60.3768L135.475 60.3768L135.475 84.665Z" fill="white"/>
<path d="M135.475 57.6704L146.602 57.6704L146.602 47.145L135.475 47.145L135.475 57.6704Z" fill="white"/>
<path d="M121.942 84.665L133.069 84.665L133.069 60.3768L121.942 60.3768L121.942 84.665Z" fill="white"/>
<path d="M121.943 57.6707L133.069 57.6707L133.069 47.1453L121.943 47.1453L121.943 57.6707Z" fill="white"/>
<path d="M24.8426 84.665L35.9696 84.665L35.9696 60.3768L24.8426 60.3768L24.8426 84.665Z" fill="white"/>
<path d="M24.8426 57.6704L35.9695 57.6704L35.9695 47.145L24.8426 47.145L24.8426 57.6704Z" fill="white"/>
<path d="M11.3101 84.665L22.437 84.665L22.437 60.3768L11.3101 60.3768L11.3101 84.665Z" fill="white"/>
<path d="M11.31 57.6704L22.4369 57.6704L22.4369 47.145L11.31 47.145L11.31 57.6704Z" fill="white"/>
<path d="M31.5905 136.026C30.8097 136.026 30.1436 135.462 30.0151 134.692L28.7625 127.177H33.1877V134.429C33.1877 135.311 32.4727 136.026 31.5905 136.026Z" fill="#37238E"/>
<path d="M112.843 136.026C113.624 136.026 114.29 135.462 114.418 134.692L115.671 127.177H111.246V134.429C111.246 135.311 111.961 136.026 112.843 136.026Z" fill="#37238E"/>
<path d="M114.305 115.993L117.989 88.644C115.196 83.5058 87.6438 79.8774 72.1256 79.8774C56.6074 79.8774 29.0553 83.5061 26.2618 88.644L29.9461 115.993" fill="#5D3EBC"/>
<path d="M117.991 88.4586V88.4723C114.589 83.624 85.7109 81.9438 72.1238 81.9438C58.5461 81.9438 29.6672 83.6195 26.2613 88.4678V88.4582C29.0577 83.3213 56.606 78.5325 72.1238 78.5325C87.6465 78.5328 115.194 83.3216 117.991 88.4586Z" fill="#7849F7"/>
<path d="M33.8263 121.328C33.8263 121.328 33.8263 116.503 33.8263 111.86C33.8263 109.279 33.9564 106.538 33.9564 104.129C33.9564 95.0044 30.648 88.2454 24.7913 88.2454C16.1696 88.2454 16.7903 96.7341 21.4647 98.5956C25.5741 100.231 25.9106 107.218 25.9106 111.86C25.9106 116.502 25.9106 121.328 25.9106 121.328H33.8263Z" fill="#7849F7"/>
<path d="M30.5876 93.6802H18.0966V101.911H30.5876V93.6802Z" fill="#7849F7"/>
<path d="M111.519 111.887H33.8128V129.615H111.519V111.887Z" fill="#37238E"/>
<path d="M111.519 120.526H33.8128V129.615H111.519V120.526Z" fill="#5D3EBC"/>
<path d="M111.519 120.526H33.8128V121.32H111.519V120.526Z" fill="#37238E"/>
<path d="M33.8263 129.615C33.8263 129.615 33.8263 124.789 33.8263 120.147C33.8263 117.566 33.9564 114.825 33.9564 112.416C33.9564 103.29 30.648 96.5315 24.7913 96.5315C16.1696 96.5315 16.7903 105.021 21.4647 106.883C25.5741 108.518 25.9106 115.505 25.9106 120.147V127.443C25.9106 128.642 26.8832 129.615 28.0828 129.615H33.8263Z" fill="#5D3EBC"/>
<path d="M111.506 121.328C111.506 121.328 111.506 116.503 111.506 111.86C111.506 109.279 111.377 106.538 111.377 104.129C111.377 95.0044 114.685 88.2454 120.541 88.2454C129.163 88.2454 128.543 96.7341 123.869 98.5956C119.76 100.231 119.423 107.218 119.423 111.86C119.423 116.502 119.423 121.328 119.423 121.328H111.506Z" fill="#7849F7"/>
<path d="M127.236 93.6802H114.745V101.911H127.236V93.6802Z" fill="#7849F7"/>
<path d="M111.506 129.615C111.506 129.615 111.506 124.789 111.506 120.147C111.506 117.566 111.377 114.825 111.377 112.416C111.377 103.29 114.685 96.5315 120.541 96.5315C129.163 96.5315 128.543 105.021 123.869 106.883C119.76 108.518 119.423 115.505 119.423 120.147V127.443C119.423 128.642 118.45 129.615 117.251 129.615H111.506Z" fill="#5D3EBC"/>
<path d="M109.288 109.067H36.1032C34.8382 109.067 33.8132 110.092 33.8132 111.356V118.134H111.579V111.356C111.579 110.092 110.553 109.067 109.288 109.067Z" fill="#7849F7"/>
<path d="M111.579 111.359H33.812C33.812 107.695 52.7456 107.879 72.6956 107.879C92.078 107.879 111.579 107.695 111.579 111.359Z" fill="#7849F7"/>
<path d="M36.1032 111.459C34.8382 111.459 33.8132 112.485 33.8132 113.749V118.235C33.8132 119.501 34.8385 120.526 36.1032 120.526H109.288C110.553 120.526 111.579 119.501 111.579 118.235V113.749C111.579 112.485 110.553 111.459 109.288 111.459H36.1032Z" fill="#5D3EBC"/>
<path d="M111.579 116.482V118.236C111.579 119.501 110.553 120.526 109.289 120.526H36.1017C34.8383 120.526 33.812 119.501 33.812 118.236V116.482C33.812 117.747 34.8383 118.772 36.1017 118.772H109.289C110.553 118.772 111.579 117.747 111.579 116.482Z" fill="#5D3EBC"/>
<path d="M47.4035 73.0222C46.8189 73.2299 46.5137 73.8724 46.7214 74.4569C46.9292 75.0415 47.5716 75.3468 48.1562 75.139C48.7408 74.9313 49.046 74.2888 48.8383 73.7043C48.6305 73.12 47.9881 72.8144 47.4035 73.0222Z" fill="#E7C3B8"/>
<path d="M45.2223 72.6704L45.2236 72.6698C45.1181 72.5371 45.0315 72.3866 44.9714 72.2181C44.6805 71.3996 45.1079 70.5005 45.9264 70.2096C46.745 69.9188 47.644 70.3464 47.9349 71.1647L48.8378 73.705L46.9 74.7805L45.2223 72.6704Z" fill="#E7C3B8"/>
<path d="M47.8563 87.3028C49.0245 87.2075 50.0486 88.0772 50.1438 89.2454C50.2391 90.4136 49.3694 91.4377 48.2012 91.5329C47.033 91.6282 46.0089 90.7585 45.9137 89.5903C45.8184 88.4224 46.6881 87.398 47.8563 87.3028Z" fill="#AF1445"/>
<path d="M35.6881 91.4524L47.3356 87.4121L48.9769 91.3166L37.9468 96.8259L35.6881 91.4524Z" fill="#AF1445"/>
<path d="M46.232 88.461L46.6459 73.8746L48.8874 73.8381L49.3563 88.6256L46.232 88.461Z" fill="#E7C3B8"/>
<path d="M46.5458 75.9629L49.058 75.9226L50.1444 89.2453L45.9078 89.3137L46.5458 75.9629Z" fill="#AF1445"/>
<path d="M47.78 74.4787L46.6038 74.7881C46.4788 74.821 46.3507 74.7462 46.3181 74.6212L44.9904 69.576C44.9574 69.4511 45.0322 69.3229 45.1572 69.2903L46.3334 68.9809C46.4584 68.948 46.5866 69.0228 46.6192 69.1478L47.9469 74.193C47.9798 74.3179 47.905 74.4458 47.78 74.4787Z" fill="#1D1742"/>
<path d="M47.3766 74.5849L46.2004 74.8943C46.0755 74.9272 45.9473 74.8524 45.9147 74.7274L44.587 69.6822C44.5541 69.5573 44.6289 69.4291 44.7538 69.3965L45.93 69.0871C46.055 69.0542 46.1832 69.129 46.2158 69.254L47.5435 74.2991C47.5764 74.4241 47.5016 74.552 47.3766 74.5849Z" fill="#40327A"/>
<path d="M48.1961 72.7411C48.0203 72.9185 47.7339 72.9201 47.5565 72.7443L46.3861 71.5847C46.2087 71.4089 46.2074 71.1228 46.3829 70.9454C46.5587 70.7681 46.8447 70.7668 47.0221 70.9423L48.1925 72.1018C48.3706 72.2776 48.3718 72.5637 48.1961 72.7411Z" fill="#E7C3B8"/>
<path d="M26.5972 96.254L22.5901 98.8036L24.3685 86.8348L23.5253 86.0291C23.5253 86.0291 17.604 100.914 17.8671 102.249C17.9796 102.82 18.748 103.609 19.8427 103.609C20.7146 103.609 26.7391 101.333 26.7391 101.333L26.5972 96.254Z" fill="#C11845"/>
<path d="M22.321 100.606C23.1328 100.031 23.1571 98.4858 23.1571 98.4858L22.6185 98.7879C22.5217 99.3939 22.4229 99.9999 22.321 100.606Z" fill="#AF1445"/>
<path d="M29.0833 94.1791C29.9194 94.5006 32.2721 95.4764 33.3524 94.7113C34.644 93.7965 33.2604 92.0239 33.2604 92.0239C33.2604 92.0239 33.8456 91.7468 34.2704 91.532C34.2713 91.531 34.2723 91.5307 34.2729 91.5291C34.2883 91.5135 34.3036 91.4962 34.3193 91.4796C34.3637 91.432 34.4094 91.3811 34.4573 91.3268C34.4701 91.3121 34.4829 91.298 34.4957 91.283C34.6255 91.1331 34.7655 90.9631 34.909 90.7809C35.5067 90.0247 36.166 89.0808 36.4073 88.6714C36.4665 88.5701 37.5899 88.8555 38.6223 89.1879C38.6265 89.1822 38.6303 89.177 38.6351 89.1719C36.1069 88.1354 35.5309 85.4937 34.2135 83.1599C33.2169 81.3949 33.3697 79.2001 32.4668 77.5908C29.8545 72.9365 22.7804 75.5379 21.9941 78.752C16.7309 82.1045 20.8783 90.7812 23.5081 93.8249C24.404 94.8615 25.4658 95.7356 26.6733 96.3816C27.6092 95.5534 28.9183 94.3852 29.0833 94.1791Z" fill="#723F1C"/>
<path d="M71.3506 99.2294C71.3506 99.2294 71.426 101.434 71.8805 102.235C72.3347 103.035 82.0841 115.02 82.0841 115.02L83.1717 114.916C83.1717 114.916 74.8942 95.4537 73.2277 94.4722C71.5619 93.4903 56.97 100.686 51.9139 99.8395L46.4823 106.233C46.4823 106.233 47.3705 106.925 48.6662 107.572L53.4746 108.643C60.3065 108.025 71.3506 99.2294 71.3506 99.2294Z" fill="#608B93"/>
<path d="M71.3506 99.2294C71.3506 99.2294 71.426 101.434 71.8805 102.235C72.3347 103.035 82.0841 115.02 82.0841 115.02L84.0507 114.477C84.0507 114.477 78.0578 102.892 75.0595 97.2695C74.2438 95.7388 73.5841 94.6822 73.2281 94.4722C71.5622 93.4903 56.9703 100.686 51.9142 99.8395L46.4826 106.233C46.4826 106.233 47.3708 106.925 48.6666 107.572L53.4749 108.643C60.3065 108.025 71.3506 99.2294 71.3506 99.2294Z" fill="#40327A"/>
<path d="M73.0299 93.5697C73.0299 93.5697 74.3224 96.0087 75.0592 97.2693C75.7713 98.4861 88.8204 107.812 88.8204 107.812L90.2421 106.801C90.2421 106.801 75.8688 89.8001 73.749 89.1123C71.6293 88.4245 54.7601 100.057 50.9436 101.82L46.3228 107.049L51.1551 109.448C53.5194 110.621 56.3413 110.356 58.4485 108.766C65.0701 103.771 73.0299 93.5697 73.0299 93.5697Z" fill="#2E5EBF"/>
<path d="M26.3421 89.0391C27.065 89.5584 29.4085 92.9931 29.2062 93.9401C29.0038 94.8868 27.9932 95.7124 27.9932 95.7124C27.9932 95.7124 32.66 98.7434 34.6164 95.931C36.5728 93.1187 36.5903 91.8198 36.0278 92.0125C34.8113 92.4289 32.3445 91.6932 32.2333 89.5329L26.3421 89.0391Z" fill="#E7C3B8"/>
<path d="M50.8684 101.804C51.5342 101.156 52.5586 99.6139 52.4266 99.6366C51.3427 99.822 48.0928 99.3352 47.5153 99.2115C46.8677 99.0731 43.9838 96.4762 43.6201 95.9811C43.2573 95.4867 43.2023 92.8175 42.3199 92.3161C40.3104 91.1744 36.608 91.9798 35.1697 91.1514C34.757 91.3761 33.8369 91.7781 33.8369 91.7781C33.8369 91.7781 35.2847 93.7815 33.872 94.7819C32.6904 95.619 30.0072 94.5806 29.0924 94.2287C28.8083 94.5844 24.5385 97.7355 24.5385 97.7355L26.7391 101.333C26.7391 101.333 29.5217 100.261 30.4435 100.093C32.2065 101.564 36.8068 103.913 40.7825 105.815L48.1715 107.462C48.6742 105.867 49.1895 103.439 50.8684 101.804Z" fill="#C11845"/>
<path opacity="0.8" d="M34.5196 95.4587C36.4105 94.0006 34.5772 91.5341 34.5321 91.4641C34.1744 91.6303 33.8372 91.7777 33.8372 91.7777C33.8372 91.7777 35.2851 93.781 33.8724 94.7814C32.6908 95.6185 30.0076 94.5801 29.0928 94.2282C29.0493 94.2828 28.9106 94.404 28.7083 94.5689C30.13 95.2925 33.2552 96.4332 34.5196 95.4587Z" fill="white"/>
<path d="M34.5937 90.6891C35.3947 91.3293 37.9973 90.3692 39.2202 89.1064C36.7323 88.0864 35.5912 85.5602 34.2779 83.2708C34.2932 87.1944 32.4778 88.998 34.5937 90.6891Z" fill="#723F1C"/>
<path d="M24.8381 87.6811L25.8349 87.1845L24.8416 85.1907L23.8447 85.6874C23.294 85.9616 23.0702 86.6302 23.3445 87.1809C23.6187 87.7316 24.2874 87.9557 24.8381 87.6811Z" fill="#E7C3B8"/>
<path d="M32.7322 90.8257L28.774 90.6528L26.7815 89.039L30.9906 87.3965L32.7322 90.8257Z" fill="#D58781"/>
<path d="M25.932 77.7081L25.561 77.8928C23.1935 79.0722 22.2305 81.9478 23.4099 84.3153L25.2484 88.0056C26.4549 90.4273 29.3961 91.4124 31.8178 90.2058L31.9233 90.1534C34.1782 89.03 35.0955 86.2911 33.9721 84.0362L31.7983 79.6731C30.7212 77.5102 28.0946 76.6307 25.932 77.7081Z" fill="#E7C3B8"/>
<path d="M23.5582 84.9383L23.3495 85.0159L22.1902 81.8961C21.5928 80.2881 22.4117 78.5005 24.0197 77.9028L28.0622 76.4006C29.2956 75.9422 30.6671 76.5706 31.1258 77.804L31.4441 78.6606L31.2351 78.7383C29.4571 79.3989 27.9433 80.6215 26.9231 82.2209C26.1269 83.4686 24.9456 84.4227 23.5582 84.9383Z" fill="#723F1C"/>
<path d="M29.8879 86.9454C30.2219 87.601 31.0242 87.8615 31.6797 87.5271C32.3353 87.1931 32.5957 86.3909 32.2614 85.7354L29.8879 86.9454Z" fill="white"/>
<path d="M28.22 84.5315C28.4223 84.3932 28.474 84.1171 28.3357 83.9149C28.1973 83.7127 27.9212 83.6609 27.719 83.7993C27.5168 83.9376 27.4651 84.2137 27.6034 84.4159C27.7418 84.6181 28.0178 84.6699 28.22 84.5315Z" fill="#723F1C"/>
<path d="M31.376 82.9629C31.5782 82.8246 31.63 82.5485 31.4916 82.3463C31.3532 82.1441 31.0772 82.0923 30.8749 82.2307C30.6727 82.369 30.621 82.6451 30.7593 82.8473C30.8977 83.0495 31.1738 83.1013 31.376 82.9629Z" fill="#723F1C"/>
<path d="M28.9111 86.835C29.0649 86.4421 28.8711 85.9989 28.4783 85.8451C28.0854 85.6913 27.6423 85.8851 27.4884 86.2779C27.3346 86.6708 27.5284 87.114 27.9212 87.2678C28.3141 87.4216 28.7573 87.2278 28.9111 86.835Z" fill="#E2B1A7"/>
<path d="M33.6529 84.2341C33.8067 83.8413 33.613 83.3981 33.2201 83.2443C32.8272 83.0905 32.3841 83.2842 32.2303 83.6771C32.0764 84.07 32.2702 84.5131 32.6631 84.6669C33.0559 84.8208 33.4991 84.627 33.6529 84.2341Z" fill="#E2B1A7"/>
<path d="M84.4391 113.818L81.8416 115.043L82.6892 116.843L86.3283 115.127C86.6358 114.981 86.7678 114.614 86.6227 114.306C86.5288 114.107 86.3354 113.973 86.1158 113.955L84.4391 113.818Z" fill="#40327A"/>
<path d="M90.8605 106.263L88.263 107.488L89.1106 109.288L92.7498 107.571C93.0573 107.426 93.1893 107.059 93.0442 106.752C92.9502 106.552 92.7568 106.418 92.5373 106.4L90.8605 106.263Z" fill="#40327A"/>
<path d="M149.779 139.548H129.235V104.669C129.235 102.437 131.045 100.628 133.276 100.628H145.738C147.97 100.628 149.779 102.437 149.779 104.669V139.548Z" fill="#D38D2F"/>
<path d="M149.779 146.927H129.235V125.181C129.235 122.949 131.045 121.14 133.276 121.14H145.738C147.97 121.14 149.779 122.949 149.779 125.181V146.927Z" fill="#C06700"/>
<path d="M149.067 148.426H147.19V146.439C147.19 146.235 147.355 146.07 147.559 146.07H148.697C148.901 146.07 149.067 146.235 149.067 146.439V148.426H149.067Z" fill="#C06700"/>
<path d="M132.055 148.426H130.177V146.439C130.177 146.235 130.343 146.07 130.547 146.07H131.685C131.889 146.07 132.054 146.235 132.054 146.439V148.426H132.055Z" fill="#C06700"/>
<path d="M140.602 106.751H138.454V61.7922H140.602C142.376 61.7922 143.813 63.2302 143.813 65.0038V103.539C143.813 105.313 142.376 106.751 140.602 106.751Z" fill="#5D3EBC"/>
<path d="M139.025 106.751H136.878V61.7922H139.025C140.799 61.7922 142.237 63.2302 142.237 65.0038V103.539C142.237 105.313 140.799 106.751 139.025 106.751Z" fill="#5D3EBC"/>
<path d="M140.602 114.045H138.454V69.0862H140.602C142.376 69.0862 143.813 70.5242 143.813 72.2977V110.833C143.813 112.607 142.376 114.045 140.602 114.045Z" fill="#5D3EBC"/>
<path d="M139.025 114.045H136.878V69.0862H139.025C140.799 69.0862 142.237 70.5242 142.237 72.2977V110.833C142.237 112.607 140.799 114.045 139.025 114.045Z" fill="#37238E"/>
</g>
<defs>
<clipPath id="clip0">
<rect width="153.314" height="150" fill="white" transform="translate(0.342926 0.000244141)"/>
</clipPath>
</defs>
</svg>
