<svg width="148" height="150" viewBox="0 0 148 150" fill="none" xmlns="http://www.w3.org/2000/svg">
<g clip-path="url(#clip0)">
<path d="M73.9792 148.121C114.837 148.121 147.958 114.999 147.958 74.1417C147.958 33.2841 114.837 0.162506 73.9792 0.162506C33.1216 0.162506 0 33.2841 0 74.1417C0 114.999 33.1216 148.121 73.9792 148.121Z" fill="#F0EFFF"/>
<path d="M22.6517 29.9152L28.7715 50.7606C29.2126 52.2634 30.7942 53.1221 32.291 52.6827L45.9072 48.6854L38.9887 25.1192L22.6517 29.9152Z" fill="#FFD100"/>
<path d="M57.5704 7.83599L48.9535 10.3658C49.447 9.76023 49.8575 9.18552 50.1169 8.70123C51.6691 5.84968 50.6142 2.25627 47.7651 0.690244C45.0005 -0.834722 41.2816 0.2636 39.7784 3.03495C38.9436 4.56358 37.2268 10.3068 38.6095 13.4024L38.4096 13.4612C37.8935 10.1111 33.3462 6.21347 31.822 5.37079C29.0591 3.8518 25.3385 4.94415 23.8353 7.7155C22.2893 10.5653 23.3443 14.1585 26.1871 15.7265C26.6732 15.992 27.323 16.2553 28.0657 16.498L19.4487 19.0278C17.946 19.4689 17.0873 21.0506 17.5266 22.5474L18.7256 26.6316C18.9461 27.3831 19.7379 27.8154 20.4892 27.5948L38.1835 22.4001L37.9006 21.4365L43.3483 19.8371L43.6311 20.8007L61.3253 15.606C62.0768 15.3854 62.5091 14.5937 62.2885 13.8424L61.0896 9.75811C60.6506 8.26129 59.0732 7.39489 57.5704 7.83599ZM35.6016 14.1869C35.6016 14.1869 35.5131 14.3116 35.1254 14.4253C33.2469 14.9769 29.079 14.0745 27.5565 13.238C26.0794 12.4211 25.5295 10.5485 26.3325 9.06888C26.7202 8.34958 27.3645 7.83117 28.1463 7.60175C28.9219 7.37407 29.7441 7.46179 30.4592 7.85739C32.8378 9.16663 36.0458 13.3457 35.6016 14.1869ZM41.8941 12.4383C41.5062 12.5522 41.3662 12.5011 41.3645 12.4949C40.5361 12.0272 40.976 6.77738 42.2694 4.39007C43.0406 2.95919 44.9598 2.38911 46.3961 3.17858C47.8794 3.99369 48.4291 5.86607 47.6201 7.34766C46.799 8.87879 43.7786 11.885 41.8941 12.4383Z" fill="#FFD100"/>
<path d="M44.4304 23.5215L51.3488 47.0878L64.965 43.0905C66.4678 42.6494 67.3282 41.0737 66.8871 39.5709L60.7672 18.7253L44.4304 23.5215Z" fill="#FFD100"/>
<path d="M102.796 60.5598L98.0352 75.0445C97.692 76.0887 98.2642 77.2148 99.3043 77.5566L108.766 80.6667L114.148 64.2915L102.796 60.5598Z" fill="#5D38BE"/>
<path d="M131.768 61.6992L125.781 59.731C126.307 59.5774 126.774 59.4087 127.116 59.2321C129.148 58.2018 129.969 55.705 128.946 53.6656C127.955 51.6836 125.368 50.838 123.396 51.8415C122.305 52.3927 119.027 55.0287 118.593 57.3686L118.454 57.3229C119.49 55.1812 118.413 51.1181 117.868 50.0242C116.876 48.0464 114.29 47.1966 112.318 48.2001C110.29 49.2317 109.469 51.7287 110.488 53.7665C110.663 54.1133 110.934 54.5243 111.267 54.9602L105.279 52.992C104.235 52.6489 103.109 53.2211 102.767 54.2612L101.834 57.0992C101.663 57.6213 101.948 58.1864 102.47 58.358L114.766 62.3994L114.986 61.7298L118.771 62.9741L118.551 63.6437L130.846 67.6851C131.368 67.8567 131.934 67.5712 132.105 67.0491L133.038 64.2111C133.379 63.1711 132.813 62.0424 131.768 61.6992ZM116.542 56.6242C116.542 56.6242 116.442 56.661 116.172 56.5725C114.867 56.1434 112.817 53.9627 112.27 52.8731C111.742 51.8129 112.169 50.5118 113.222 49.9762C113.733 49.7148 114.312 49.6718 114.855 49.8503C115.394 50.0275 115.834 50.4056 116.09 50.9188C116.943 52.6225 117.134 56.3148 116.542 56.6242ZM120.876 58.1185C120.606 58.03 120.545 57.9446 120.547 57.9406C120.254 57.3404 122.598 54.4811 124.296 53.6163C125.312 53.0963 126.648 53.5309 127.164 54.5588C127.697 55.6205 127.269 56.9215 126.212 57.4557C125.128 58.014 122.185 58.549 120.876 58.1185Z" fill="#5D38BE"/>
<path d="M117.929 65.5342L112.547 81.9094L122.008 85.0195C123.052 85.3626 124.177 84.7947 124.52 83.7503L129.281 69.2656L117.929 65.5342Z" fill="#5D38BE"/>
<path d="M108.958 19.8507C109.141 19.3579 109.379 18.9064 109.673 18.4956C109.968 18.0851 110.381 17.7873 110.913 17.6016C111.489 17.3868 112.051 17.3344 112.598 17.4437C113.146 17.5532 113.623 17.7776 114.031 18.1167C114.438 18.4559 114.746 18.8808 114.956 19.3917C115.165 19.9025 115.225 20.4597 115.136 21.0628C115.053 21.5767 114.849 22.0325 114.526 22.4302C114.201 22.8281 113.813 23.1347 113.359 23.3492C112.905 23.5642 112.421 23.6756 111.907 23.6833C111.394 23.6911 110.911 23.5692 110.459 23.3178C109.834 22.9652 109.416 22.4879 109.207 21.886C108.997 21.2847 108.912 20.6508 108.949 19.9845L108.958 19.8507ZM119.459 19.1991C119.759 19.0038 120.044 18.928 120.313 18.9721C120.583 19.0163 120.805 19.1314 120.979 19.3172C121.153 19.5033 121.256 19.7389 121.286 20.024C121.316 20.3091 121.23 20.5924 121.028 20.8732C120.955 20.9745 120.872 21.0606 120.779 21.1314C120.686 21.2025 120.592 21.2798 120.497 21.3631C120.238 21.6064 120.02 21.8096 119.843 21.9731C119.665 22.1364 119.493 22.2945 119.324 22.4466C119.156 22.5989 118.978 22.7651 118.791 22.9457C118.603 23.1266 118.364 23.3543 118.073 23.6294C117.052 24.5925 116.039 25.5476 115.035 26.4946C114.03 27.4416 113.019 28.3905 112.001 29.3411C111.79 29.5428 111.583 29.7418 111.379 29.9382C111.175 30.1351 110.963 30.3263 110.742 30.5129C110.581 30.6604 110.413 30.8125 110.237 30.9696C110.061 31.1268 109.876 31.2496 109.683 31.3383C109.489 31.4266 109.292 31.4692 109.092 31.4657C108.891 31.4622 108.682 31.366 108.463 31.1771C108.19 30.9373 108.057 30.6922 108.065 30.4412C108.072 30.1902 108.156 29.9488 108.315 29.7169C108.474 29.485 108.67 29.2671 108.901 29.0633C109.132 28.8596 109.328 28.6841 109.489 28.5368C109.715 28.3255 109.942 28.1111 110.169 27.8935C110.397 27.6764 110.624 27.4618 110.85 27.2505C112.291 25.897 113.719 24.5536 115.136 23.221C116.553 21.8881 117.993 20.5476 119.459 19.1991ZM111.741 19.4684C111.565 19.5087 111.415 19.6033 111.293 19.7524C111.17 19.9012 111.071 20.0649 110.994 20.2432C110.99 20.6309 111.074 20.9373 111.247 21.1619C111.42 21.3865 111.621 21.5201 111.852 21.5625C112.082 21.6049 112.311 21.5528 112.536 21.4061C112.762 21.2594 112.917 21.014 113.004 20.6693C113.041 20.4958 113.027 20.3277 112.965 20.1651C112.902 20.0032 112.805 19.8659 112.673 19.7535C112.541 19.6413 112.394 19.5553 112.232 19.4946C112.07 19.4345 111.906 19.4256 111.741 19.4684ZM114.324 29.3864C114.476 28.9781 114.666 28.5841 114.896 28.2048C115.125 27.8258 115.455 27.5395 115.885 27.3454C116.472 27.0809 117.054 26.9779 117.632 27.0352C118.21 27.093 118.722 27.276 119.168 27.5844C119.615 27.8929 119.958 28.3059 120.199 28.8235C120.439 29.341 120.509 29.9265 120.41 30.579C120.316 31.1424 120.098 31.6211 119.755 32.0149C119.412 32.4088 119.004 32.7015 118.529 32.8923C118.054 33.0834 117.553 33.1584 117.023 33.1175C116.494 33.0764 116.002 32.9043 115.548 32.6008C115.038 32.2592 114.693 31.8036 114.516 31.2349C114.338 30.666 114.272 30.0946 114.316 29.5206L114.324 29.3864ZM116.78 29.2654C116.641 29.4304 116.533 29.6085 116.453 29.7988C116.374 29.9895 116.384 30.186 116.484 30.3886C116.532 30.5929 116.63 30.7533 116.781 30.8692C116.931 30.9856 117.093 31.0589 117.269 31.0894C117.444 31.12 117.621 31.0959 117.8 31.0173C117.978 30.9384 118.113 30.8052 118.205 30.6172C118.337 30.3604 118.379 30.1165 118.331 29.8858C118.282 29.6552 118.18 29.4682 118.022 29.3246C117.864 29.1811 117.671 29.098 117.443 29.0755C117.214 29.0531 116.993 29.116 116.78 29.2654Z" fill="#FFD100"/>
<path d="M14.6903 78.0034C14.6398 77.2369 14.689 76.4917 14.8367 75.768C14.9853 75.0443 15.3589 74.4003 15.9585 73.8355C16.6005 73.205 17.3192 72.8 18.1149 72.6195C18.9105 72.4395 19.6817 72.4543 20.4283 72.6641C21.1742 72.8738 21.8394 73.2573 22.4239 73.8146C23.0077 74.372 23.4204 75.0797 23.661 75.9382C23.8565 76.6741 23.8565 77.4036 23.6612 78.1279C23.4654 78.8526 23.1293 79.4935 22.6512 80.0508C22.1739 80.6084 21.5943 81.0452 20.9132 81.362C20.2321 81.6787 19.5153 81.8036 18.7617 81.7375C17.7166 81.6398 16.875 81.2511 16.2367 80.5725C15.5986 79.8945 15.1056 79.0996 14.7586 78.1877L14.6903 78.0034ZM28.3206 70.8727C28.6053 70.4329 28.9404 70.1617 29.3264 70.0603C29.7123 69.9589 30.0771 69.9801 30.4208 70.1241C30.7646 70.2687 31.0416 70.522 31.2519 70.8846C31.4623 71.2473 31.5166 71.6766 31.4141 72.1723C31.3763 72.351 31.3173 72.5156 31.2356 72.6654C31.154 72.816 31.0744 72.975 30.9965 73.1432C30.7956 73.6226 30.626 74.0236 30.4866 74.3475C30.3472 74.6714 30.2113 74.9849 30.0773 75.2883C29.9427 75.5922 29.8043 75.9203 29.662 76.2731C29.5199 76.6261 29.3364 77.0728 29.111 77.6141C28.3225 79.5087 27.5398 81.3876 26.764 83.2505C25.9876 85.1138 25.2036 86.9833 24.4112 88.8596C24.2494 89.2548 24.0913 89.644 23.9362 90.0279C23.7811 90.4123 23.6123 90.794 23.4287 91.1748C23.3017 91.4676 23.1677 91.7711 23.027 92.0855C22.8851 92.4005 22.7119 92.6745 22.5064 92.9081C22.3001 93.1416 22.0626 93.3161 21.7931 93.4306C21.5238 93.5453 21.1864 93.5418 20.7813 93.4202C20.2735 93.2631 19.9502 93.0149 19.811 92.6752C19.6718 92.3354 19.6396 91.9633 19.7141 91.5586C19.7879 91.1543 19.9192 90.7466 20.1064 90.3369C20.293 89.9272 20.4501 89.5762 20.5774 89.2833C20.7534 88.8665 20.9282 88.4451 21.1023 88.0188C21.2764 87.5933 21.4515 87.1719 21.6279 86.7545C22.7439 84.0884 23.8498 81.4435 24.9469 78.8195C26.0439 76.1954 27.1679 73.5471 28.3206 70.8727ZM18.1783 75.8337C17.966 75.993 17.8224 76.2089 17.7486 76.4805C17.6736 76.7526 17.6387 77.0302 17.6423 77.314C17.8677 77.8343 18.1625 78.1933 18.5271 78.3897C18.8918 78.5866 19.2402 78.645 19.5739 78.5636C19.907 78.4829 20.1806 78.2771 20.3946 77.9469C20.608 77.6166 20.6693 77.1962 20.5793 76.6845C20.5249 76.4308 20.4073 76.2141 20.2263 76.0348C20.0457 75.8561 19.8344 75.7306 19.5914 75.6591C19.3485 75.5879 19.1012 75.5605 18.8484 75.5764C18.5959 75.5927 18.3726 75.6783 18.1783 75.8337ZM27.5402 87.5349C27.4989 86.8993 27.5182 86.2598 27.5982 85.6168C27.6782 84.9741 27.9479 84.3951 28.4064 83.8796C29.0327 83.1763 29.7484 82.6916 30.5539 82.4237C31.3595 82.1565 32.1521 82.0953 32.9325 82.2409C33.7121 82.3866 34.417 82.7333 35.0466 83.2808C35.6757 83.8283 36.1185 84.5682 36.3751 85.4987C36.586 86.3066 36.5799 87.0759 36.3572 87.8062C36.1345 88.5364 35.7636 89.1705 35.2437 89.7086C34.7237 90.2467 34.0985 90.6459 33.3676 90.907C32.6368 91.1676 31.8774 91.2309 31.0904 91.0967C30.2047 90.9452 29.474 90.5422 28.8976 89.8887C28.3212 89.2351 27.8918 88.5118 27.608 87.7194L27.5402 87.5349ZM30.7468 85.9089C30.6597 86.2122 30.6206 86.5148 30.6285 86.816C30.6366 87.1175 30.7669 87.3741 31.021 87.585C31.2061 87.8295 31.4334 87.9851 31.7036 88.05C31.9739 88.1156 32.2338 88.1169 32.4862 88.0529C32.738 87.9895 32.9597 87.8518 33.1517 87.6402C33.3429 87.4285 33.444 87.1701 33.4546 86.8642C33.4779 86.4424 33.3882 86.0919 33.1866 85.8125C32.9844 85.5337 32.7353 85.3454 32.4393 85.2476C32.1434 85.1501 31.8363 85.1541 31.5184 85.26C31.1995 85.3668 30.9421 85.5825 30.7468 85.9089Z" fill="#412FA7"/>
<path d="M82.8247 54.3903L84.4609 53.6075L86.0971 52.825L86.0805 54.424L86.064 56.023L84.4443 55.2065L82.8247 54.3903Z" fill="#7E65D8"/>
<path d="M89.3295 54.4577L87.6933 55.2403L86.0571 56.023L86.0737 54.424L86.0903 52.825L87.7099 53.6413L89.3295 54.4577Z" fill="#7E65D8"/>
<path d="M86.1107 51.1716L86.8934 52.8078L87.6759 54.444L86.0769 54.4274L84.4779 54.4108L85.2944 52.7912L86.1107 51.1716Z" fill="#7E65D8"/>
<path d="M86.0434 57.6764L85.2606 56.0402L84.4781 54.404L86.0771 54.4206L87.6761 54.4372L86.8596 56.0568L86.0434 57.6764Z" fill="#7E65D8"/>
<path d="M16.288 100.071L17.4119 99.5333L18.5359 98.9956L18.5245 100.094L18.5131 101.193L17.4006 100.632L16.288 100.071Z" fill="#7E65D8"/>
<path d="M20.7564 100.117L19.6324 100.655L18.5085 101.193L18.5198 100.094L18.5312 98.9956L19.6438 99.5564L20.7564 100.117Z" fill="#7E65D8"/>
<path d="M18.5452 97.86L19.0829 98.9839L19.6206 100.108L18.5221 100.097L17.4236 100.085L17.9844 98.9726L18.5452 97.86Z" fill="#7E65D8"/>
<path d="M18.499 102.328L17.9613 101.204L17.4236 100.08L18.5221 100.092L19.6206 100.103L19.0598 101.216L18.499 102.328Z" fill="#7E65D8"/>
<path d="M9.81181 59.8914L11.448 59.1088L13.0842 58.3261L13.0676 59.9251L13.0511 61.5241L11.4314 60.7078L9.81181 59.8914Z" fill="#5D38BE"/>
<path d="M16.3164 59.9589L14.6802 60.7414L13.044 61.5241L13.0606 59.9251L13.0772 58.3261L14.6968 59.1424L16.3164 59.9589Z" fill="#5D38BE"/>
<path d="M13.098 56.6727L13.8805 58.3089L14.6632 59.9451L13.0642 59.9285L11.4652 59.912L12.2817 58.2923L13.098 56.6727Z" fill="#5D38BE"/>
<path d="M13.0305 63.1773L12.248 61.5411L11.4652 59.9049L13.0642 59.9215L14.6632 59.9381L13.8469 61.5577L13.0305 63.1773Z" fill="#5D38BE"/>
<path d="M51.6994 69.6669L53.3356 68.8844L54.9718 68.1017L54.9553 69.7007L54.9387 71.2997L53.319 70.4834L51.6994 69.6669Z" fill="#5D38BE"/>
<path d="M58.204 69.7344L56.5678 70.5169L54.9316 71.2997L54.9482 69.7007L54.9648 68.1017L56.5844 68.918L58.204 69.7344Z" fill="#5D38BE"/>
<path d="M54.9856 66.4482L55.7681 68.0844L56.5508 69.7207L54.9518 69.7041L53.3528 69.6875L54.1691 68.0679L54.9856 66.4482Z" fill="#5D38BE"/>
<path d="M54.9181 72.9529L54.1356 71.3167L53.3528 69.6805L54.9518 69.6971L56.5508 69.7136L55.7346 71.3333L54.9181 72.9529Z" fill="#5D38BE"/>
<path d="M129.921 100.085L131.029 99.5547L132.138 99.0243L132.127 100.108L132.116 101.191L131.018 100.638L129.921 100.085Z" fill="#FFD100"/>
<path d="M134.329 100.131L133.22 100.661L132.111 101.191L132.122 100.108L132.133 99.0243L133.231 99.5774L134.329 100.131Z" fill="#FFD100"/>
<path d="M132.147 97.9038L132.678 99.0126L133.208 100.122L132.125 100.11L131.041 100.099L131.594 99.0014L132.147 97.9038Z" fill="#FFD100"/>
<path d="M132.102 102.312L131.571 101.203L131.041 100.094L132.125 100.105L133.208 100.117L132.655 101.214L132.102 102.312Z" fill="#FFD100"/>
<path d="M93.2044 24.1718L94.3131 23.6414L95.4221 23.1111L95.4107 24.1948L95.3995 25.2784L94.302 24.7251L93.2044 24.1718Z" fill="#FFD100"/>
<path d="M97.6125 24.2175L96.5036 24.7479L95.3948 25.2782L95.406 24.1948L95.4172 23.1111L96.5149 23.6644L97.6125 24.2175Z" fill="#FFD100"/>
<path d="M95.4313 21.9906L95.9617 23.0995L96.492 24.2083L95.4084 24.1971L94.3247 24.1859L94.878 23.0882L95.4313 21.9906Z" fill="#FFD100"/>
<path d="M95.3856 26.3987L94.8553 25.29L94.3249 24.181L95.4084 24.1924L96.4921 24.2036L95.9388 25.3011L95.3856 26.3987Z" fill="#FFD100"/>
<path d="M37.2177 147.662L37.1352 100.24C37.1329 98.9468 38.1798 97.8965 39.4734 97.8942L110.351 97.7708C111.645 97.7685 112.695 98.8153 112.697 100.109L112.78 147.53C112.782 148.824 111.735 149.874 110.442 149.877L39.564 150C38.2704 150.002 37.2201 148.955 37.2177 147.662Z" fill="#5D38BE"/>
<path d="M53.2161 108.367L50.6295 106.995L64.6684 80.5134C66.6757 76.7268 70.5851 74.3699 74.8708 74.3624C74.8774 74.3624 74.8847 74.3624 74.8913 74.3624C79.1695 74.3624 83.0775 76.704 85.0949 80.4779L99.2263 106.911L96.6443 108.291L82.5128 81.8581C81.0062 79.0395 78.0864 77.2899 74.8911 77.2899C74.8859 77.2899 74.8812 77.2899 74.876 77.2899C71.6746 77.2955 68.7544 79.0561 67.2549 81.8845L53.2161 108.367Z" fill="#5D38BE"/>
<path d="M37.1352 139.532L37.1445 147.662C37.1468 148.956 38.1971 150.002 39.4907 150L110.368 149.877C111.662 149.875 112.709 148.824 112.707 147.531L112.657 102.516C97.0857 119.649 67.4909 136.248 37.1352 139.532Z" fill="#412FA7"/>
<path d="M74.5717 121.06C74.5678 118.775 72.6931 117.279 69.9609 117.284C67.3619 117.289 64.6484 119.158 64.6555 123.32C64.6609 126.494 66.584 128.837 69.9048 128.831C71.7735 128.828 73.8229 127.765 74.3411 127.029C74.3444 127.024 73.9854 125.661 73.0151 125.663C72.5051 125.664 72.1281 125.862 71.711 126.035C71.2759 126.217 70.7589 126.375 70.0945 126.376C69.1674 126.377 67.5688 126.01 67.5653 124.014C67.5653 124.014 68.312 124.23 70.0211 124.227C73.6918 124.22 74.5744 122.667 74.5717 121.06ZM70.076 119.764C71.3409 119.761 71.9428 120.447 71.9439 121.076C71.9453 121.82 71.2805 122.296 70.0731 122.298C68.3195 122.301 67.6505 122.057 67.6505 122.053C67.6486 120.986 68.4803 119.766 70.076 119.764Z" fill="#FFD100"/>
<path d="M81.4077 126.374C80.1426 126.377 79.4923 125.312 79.3711 124.854C79.2496 124.396 79.1646 123.753 79.1634 123.078L79.1815 119.655L80.0979 119.653C80.837 119.652 81.4073 119.434 81.8081 119C82.2089 118.565 82.409 117.986 82.4079 117.263L79.1775 117.268L79.1507 115.75C79.1499 115.268 79.153 114.878 79.1609 114.581C79.1684 114.283 79.1798 114.046 79.196 113.869C79.2112 113.677 79.2274 113.524 79.243 113.411C78.2629 113.413 77.5156 113.623 77.002 114.042C76.4886 114.461 76.2328 115.152 76.2344 116.116L76.2236 123.702C76.229 126.804 77.7104 128.833 80.5405 128.828C81.9365 128.826 82.9527 128.075 82.9508 126.939C82.95 126.537 82.8958 126.329 82.8571 126.199C82.6078 126.264 82.1553 126.373 81.4077 126.374Z" fill="#FFD100"/>
<path d="M85.2218 116.41C85.453 116.525 85.7001 116.582 85.9637 116.581C86.5729 116.58 87.0508 116.291 87.3959 115.714C87.5437 115.45 87.6172 115.17 87.6166 114.873C87.616 114.593 87.5499 114.329 87.4177 114.082C87.2848 113.835 87.0872 113.646 86.8233 113.515C86.5923 113.383 86.3533 113.318 86.1059 113.319C85.8254 113.319 85.5538 113.398 85.291 113.555C85.0273 113.712 84.822 113.93 84.6741 114.211C84.5258 114.458 84.4524 114.739 84.453 115.052C84.4535 115.332 84.5197 115.591 84.6517 115.829C84.7844 116.069 84.9745 116.261 85.2218 116.41Z" fill="#FFD100"/>
<path d="M88.4949 126.508C87.8697 126.509 87.4675 126.055 87.4662 125.307L87.4567 119.833C87.4559 119.351 87.459 118.962 87.4669 118.664C87.4739 118.367 87.4858 118.13 87.5014 117.953C87.5173 117.76 87.5329 117.608 87.5491 117.495C86.5525 117.496 85.7976 117.707 85.2842 118.126C84.7702 118.545 84.5148 119.236 84.5165 120.2L84.5018 125.776C84.5053 127.77 85.7856 128.868 87.3993 128.801C88.4153 128.758 89.2959 128.272 89.294 127.201C89.2932 126.754 89.2205 126.398 89.2205 126.398C88.9836 126.464 88.8184 126.507 88.4949 126.508Z" fill="#FFD100"/>
<path d="M95.7155 117.505C95.1043 117.506 94.4901 117.575 93.8716 117.713C93.2532 117.851 92.6948 118.113 92.1976 118.499C91.6999 118.886 91.2952 119.421 90.9829 120.105C90.6709 120.789 90.5157 121.669 90.5177 122.745L90.5231 125.879C90.5248 126.843 90.6534 127.741 91.2364 128.182C91.8716 128.663 92.6091 128.683 93.5894 128.681C93.5732 128.585 93.5562 128.308 93.5404 128.115C93.5237 127.939 93.5115 127.702 93.503 127.404C93.494 127.107 93.4895 126.717 93.4888 126.235L93.4818 122.221C93.4801 121.272 93.6307 120.054 95.3048 119.91C96.2462 119.83 97.0723 119.469 97.0704 118.448C97.07 118.211 97.0189 117.766 96.8971 117.503L95.7155 117.505Z" fill="#FFD100"/>
<path d="M58.0397 117.305C54.6185 117.311 52.8281 119.711 52.8331 122.629C52.8377 125.331 54.4928 127.85 57.4828 127.845C59.0353 127.842 59.9347 127.18 60.155 126.987L60.1573 128.33C60.16 129.883 59.558 130.919 57.9912 130.921C57.237 130.923 56.679 130.719 56.1612 130.472C55.7014 130.252 55.3586 129.999 54.899 129.999C53.7347 130.001 53.4149 131.439 53.4209 131.447C54.2933 132.574 56.2992 133.398 57.9813 133.395C61.2875 133.39 63.1063 131.459 63.0995 127.635C63.0995 127.635 63.0926 123.784 63.0914 123.16C63.0854 119.679 61.54 117.299 58.0397 117.305ZM58.0392 125.253C56.7561 125.255 55.7737 124.446 55.7706 122.667C55.7673 120.77 56.7689 119.783 58.0297 119.781C59.2701 119.779 60.1797 120.525 60.1832 122.513C60.1866 124.557 59.2028 125.251 58.0392 125.253Z" fill="#FFD100"/>
</g>
<defs>
<clipPath id="clip0">
<rect width="147.959" height="150" fill="white"/>
</clipPath>
</defs>
</svg>
