<svg width="160" height="161" viewBox="0 0 160 161" fill="none" xmlns="http://www.w3.org/2000/svg">
<path d="M73.3856 64.42C73.3856 63.0392 72.0672 61.532 69.2896 61.532C65.7856 61.532 63.9552 64.2056 63.9552 66.5496C63.9552 66.5576 65.424 67.0968 69.2736 67.0968C71.9248 67.0968 73.3856 66.0536 73.3856 64.42Z" fill="#FFD300"/>
<path d="M42.8416 61.524C40.0736 61.524 37.8704 63.6856 37.8704 67.852C37.8704 71.7576 40.024 73.5368 42.8416 73.5368C45.4016 73.5368 47.5584 72.0184 47.5584 67.5304C47.5584 63.1656 45.5648 61.524 42.8416 61.524Z" fill="#FFD300"/>
<path d="M80 1.3784C42.408 1.3784 11.9408 31.8456 11.9408 69.4296C11.9408 107.012 42.408 137.479 79.9904 137.479C117.573 137.479 148.04 107.012 148.04 69.4296C148.042 31.8456 117.574 1.3784 80 1.3784ZM42.6832 91.4152C38.9904 91.4152 34.5904 89.5976 32.6784 87.1192C32.6656 87.1032 33.3728 83.948 35.9296 83.948C36.9392 83.948 37.6896 84.5064 38.6992 84.9896C39.8352 85.5336 41.0592 85.9832 42.7152 85.9832C46.1552 85.9832 47.4816 83.7112 47.4816 80.3032V77.3528C47.0016 77.7768 45.0192 79.2264 41.6112 79.2264C35.0512 79.2264 31.4224 73.6904 31.4224 67.7576C31.4224 61.3496 35.3616 56.0872 42.8736 56.0872C50.5536 56.0872 53.9424 61.3192 53.9424 68.9624V78.788C53.9424 87.1832 49.9424 91.4152 42.6832 91.4152ZM69.3056 76.0552C70.5273 76.0524 71.7355 75.7997 72.856 75.3128C73.7712 74.9336 74.6 74.5 75.72 74.5C77.8512 74.5 78.6336 77.4936 78.6256 77.5048C77.4848 79.1176 72.9824 81.444 68.88 81.444C61.5888 81.444 57.376 76.292 57.376 69.324C57.376 60.188 63.3408 56.092 69.0464 56.092C75.0448 56.092 79.1552 59.3832 79.1552 64.4008C79.1552 67.9208 77.2112 71.3352 69.152 71.3352C65.4 71.3352 63.7616 70.8552 63.7616 70.8552C63.7616 75.2376 67.2704 76.0504 69.3056 76.0504V76.0552ZM92.2304 81.4792C86.0176 81.4792 82.7728 77.0168 82.7728 70.2072L82.8256 53.5528C82.8256 51.4355 83.3899 49.9181 84.5184 49.0008C85.6469 48.0835 87.2875 47.6232 89.44 47.62C89.4048 47.868 89.368 48.2024 89.3344 48.6248C89.2976 49.0136 89.272 49.5336 89.2544 50.188C89.2368 50.8424 89.2272 51.6952 89.2272 52.748L89.28 56.0808H96.3728C96.3728 57.6701 95.9317 58.9405 95.0496 59.892C94.1675 60.8435 92.9147 61.3197 91.2912 61.3208H89.28L89.2272 68.8408C89.2172 70.154 89.3682 71.4635 89.6768 72.74C89.9408 73.7464 91.3648 76.0856 94.1424 76.0856C95.216 76.103 96.287 75.9755 97.3264 75.7064C97.4774 76.2346 97.5454 76.783 97.528 77.332C97.5296 79.8296 95.296 81.4744 92.2304 81.4744V81.4792ZM101.362 49.396C101.67 48.7983 102.14 48.2993 102.718 47.956C103.257 47.6235 103.876 47.4452 104.509 47.4408C105.062 47.4447 105.604 47.5948 106.08 47.876C106.635 48.1441 107.091 48.581 107.382 49.124C107.669 49.6575 107.819 50.2542 107.816 50.86C107.819 51.5068 107.654 52.1432 107.336 52.7064C106.577 53.9715 105.527 54.6045 104.189 54.6056C103.624 54.6088 103.066 54.4789 102.56 54.2264C102.037 53.9197 101.605 53.4775 101.312 52.9464C101.018 52.3983 100.869 51.7843 100.879 51.1626C100.888 50.5408 101.056 49.9317 101.366 49.3928L101.362 49.396ZM107.282 81.4392C103.738 81.5816 100.931 79.1656 100.931 74.788L100.984 62.5448C100.984 60.4285 101.549 58.9117 102.678 57.9944C103.808 57.0771 105.466 56.6179 107.653 56.6168C107.618 56.8648 107.582 57.1992 107.547 57.6232C107.512 58.012 107.485 58.532 107.469 59.1848C107.453 59.8376 107.442 60.692 107.442 61.7448V73.7624C107.442 75.404 108.323 76.4024 109.696 76.4024C110.239 76.4084 110.779 76.3285 111.296 76.1656C111.401 76.7464 111.455 77.3354 111.456 77.9256C111.454 80.2872 109.52 81.3512 107.29 81.4392H107.282ZM124.678 61.9496C120.998 62.2584 120.667 64.932 120.667 67.0152V75.8296C120.667 76.8877 120.676 77.7411 120.694 78.3896C120.712 79.044 120.738 79.5624 120.774 79.9512C120.808 80.3752 120.845 80.9816 120.88 81.1944C118.728 81.1944 117.109 81.1464 115.715 80.0888C114.435 79.1192 114.158 77.1464 114.158 75.0296V68.1496C114.158 65.7859 114.502 63.8541 115.19 62.3544C115.878 60.8547 116.769 59.6813 117.862 58.8344C118.945 57.9926 120.202 57.4048 121.542 57.1144C122.872 56.8173 124.23 56.6665 125.592 56.6648H128.186C128.451 57.2408 128.562 58.22 128.562 58.7448C128.56 60.988 126.746 61.78 124.678 61.9496Z" fill="#FFD300"/>
<path d="M79.1552 64.396C79.1552 59.3784 75.0448 56.0872 69.0464 56.0872C63.3408 56.0872 57.376 60.1832 57.376 69.3192C57.376 76.2872 61.5888 81.4392 68.88 81.4392C72.9824 81.4392 77.4848 79.1128 78.6256 77.5C78.6256 77.4888 77.8512 74.4952 75.72 74.4952C74.6 74.4952 73.7712 74.9288 72.856 75.308C71.7355 75.7949 70.5273 76.0476 69.3056 76.0504C67.2704 76.0504 63.7616 75.2376 63.7616 70.8552C63.7616 70.8552 65.4 71.3352 69.152 71.3352C77.2112 71.3304 79.1552 67.9224 79.1552 64.396ZM69.2896 61.532C72.0672 61.532 73.3856 63.0392 73.3856 64.42C73.3856 66.0536 71.9248 67.0968 69.2736 67.0968C65.424 67.0968 63.9552 66.5576 63.9552 66.5496C63.9552 64.2056 65.7856 61.532 69.2896 61.532Z" fill="#5D3EBC"/>
<path d="M94.144 76.0888C91.3664 76.0888 89.9424 73.7496 89.6784 72.7432C89.3698 71.4667 89.2188 70.1572 89.2288 68.844L89.2816 61.324H91.2928C92.9173 61.324 94.1701 60.8477 95.0512 59.8952C95.9322 58.9427 96.3733 57.6723 96.3743 56.084H89.28L89.2272 52.7512C89.2272 51.692 89.2362 50.8387 89.2544 50.1912C89.272 49.5368 89.2976 49.0168 89.3344 48.628C89.368 48.2056 89.4048 47.8712 89.44 47.6232C87.2875 47.6232 85.6464 48.0819 84.5168 48.9992C83.3872 49.9165 82.8229 51.4339 82.824 53.5512L82.7712 70.2056C82.7712 77.0152 86.016 81.4775 92.2288 81.4775C95.2943 81.4775 97.5279 79.8328 97.5279 77.3384C97.5453 76.7893 97.4773 76.2409 97.3263 75.7128C96.2873 75.9806 95.2168 76.1071 94.144 76.0888Z" fill="#5D3EBC"/>
<path d="M102.56 54.2264C103.066 54.4789 103.624 54.6088 104.189 54.6056C105.526 54.6056 106.575 53.9725 107.336 52.7064C107.654 52.1432 107.819 51.5068 107.816 50.86C107.819 50.2542 107.669 49.6574 107.382 49.124C107.091 48.581 106.635 48.1441 106.08 47.876C105.603 47.5948 105.06 47.4452 104.506 47.4424C103.874 47.4477 103.257 47.6259 102.72 47.9576C102.142 48.3008 101.671 48.7998 101.363 49.3976C101.053 49.9365 100.885 50.5456 100.876 51.1674C100.866 51.7891 101.015 52.4031 101.309 52.9512C101.604 53.481 102.036 53.9215 102.56 54.2264Z" fill="#5D3EBC"/>
<path d="M109.704 76.4088C108.331 76.4088 107.45 75.4104 107.45 73.7688V61.7512C107.45 60.692 107.459 59.8387 107.477 59.1912C107.493 58.5384 107.52 58.0184 107.555 57.6296C107.59 57.2056 107.626 56.8712 107.661 56.6232C105.472 56.6232 103.814 57.0824 102.686 58.0008C101.559 58.9192 100.994 60.4339 100.992 62.5448L100.939 74.788C100.939 79.1656 103.746 81.5816 107.29 81.4392C109.52 81.3512 111.45 80.2872 111.45 77.9352C111.449 77.3449 111.395 76.756 111.29 76.1752C110.777 76.3355 110.242 76.4143 109.704 76.4088Z" fill="#5D3EBC"/>
<path d="M125.59 56.6712C124.228 56.6729 122.87 56.8237 121.541 57.1208C120.201 57.4112 118.943 57.999 117.861 58.8408C116.766 59.6877 115.876 60.8611 115.189 62.3608C114.502 63.8606 114.158 65.7923 114.157 68.156V75.036C114.157 77.1529 114.435 79.1257 115.714 80.0953C117.107 81.1529 118.726 81.2009 120.878 81.2009C120.843 80.9881 120.806 80.3817 120.773 79.9577C120.736 79.5689 120.71 79.0505 120.693 78.3961C120.675 77.7417 120.666 76.8873 120.666 75.8361V67.0152C120.666 64.9352 121.002 62.2584 124.677 61.9496C126.744 61.7768 128.558 60.9896 128.558 58.7496C128.558 58.2296 128.448 57.2504 128.182 56.6696L125.59 56.6712Z" fill="#5D3EBC"/>
<path d="M42.88 56.0872C35.368 56.0872 31.4288 61.3496 31.4288 67.7576C31.4288 73.6904 35.0528 79.2264 41.6176 79.2264C45.0256 79.2264 47.0032 77.7768 47.488 77.3528V80.3032C47.488 83.7112 46.1616 85.9832 42.7216 85.9832C41.0656 85.9832 39.8416 85.5336 38.7056 84.9896C37.696 84.5096 36.9456 83.948 35.936 83.948C33.376 83.948 32.672 87.1032 32.6848 87.1192C34.5968 89.5976 38.9968 91.4152 42.6896 91.4152C49.9488 91.4152 53.9488 87.1832 53.9488 78.788V68.9624C53.9424 61.3192 50.56 56.0872 42.88 56.0872ZM42.848 73.5368C40.0304 73.5368 37.8768 71.7576 37.8768 67.852C37.8768 63.692 40.08 61.524 42.848 61.524C45.568 61.524 47.5648 63.1656 47.5648 67.5304C47.5584 72.02 45.3968 73.5368 42.8416 73.5368H42.848Z" fill="#5D3EBC"/>
<path d="M29.6096 127.828C28.3568 126.743 27.2768 126.548 27.2768 126.548L31.0704 122.175L28.6608 120.087L17.7344 132.686C18.376 134.457 19.4593 136.035 20.8816 137.271C23.8096 139.81 27.5088 139.71 30.0976 136.724C32.5536 133.892 32.2288 130.1 29.6096 127.828ZM27.7088 134.652C26.2896 136.289 24.2224 136.455 22.624 135.068C21.5824 134.166 21.3136 133.426 21.3136 133.426L25.2896 128.841C25.2896 128.841 26.4256 128.814 27.5632 129.801C28.9504 131.002 29.0288 133.13 27.7088 134.652Z" fill="white"/>
<path d="M39.0048 135.049L36.336 133.3L31.1152 141.282C30.1232 142.798 30.9392 144.857 32.4192 145.855L34.72 144.162C33.9792 143.522 33.8544 142.926 34.1328 142.498L39.0048 135.049Z" fill="white"/>
<path d="M58.9712 143.746C56.8736 143.02 54.6144 143.777 54.6144 143.777C54.6144 143.777 53.9744 142.017 52.1248 141.377C50.2752 140.737 48.3808 141.51 48.3808 141.51L48.6272 140.407L45.8544 139.447L41.7984 151.163L44.8128 152.207L47.5584 144.276C47.5584 144.276 49.2464 143.375 50.3552 143.759C51.464 144.143 51.8304 145.188 51.3376 146.61L48.9104 153.62L51.9232 154.665L54.376 147.577C54.536 147.097 54.7184 146.588 54.7184 146.588C54.7184 146.588 56.2128 145.788 57.4656 146.217C58.576 146.601 58.9664 147.657 58.4752 149.078L57.0048 153.319C56.3952 155.079 57.6176 156.852 59.336 157.502L61.12 155.316C60.2384 154.822 60.0256 154.343 60.2192 153.788L61.4544 150.222C62.5056 147.183 61.864 144.748 58.9712 143.746Z" fill="white"/>
<path d="M75.9232 155.794L76.92 146.921L73.776 146.567L72.8 155.238C72.8 155.238 71.2864 156.145 69.6896 155.966C68.3968 155.822 67.6096 155.22 67.784 153.726L68.6544 145.994L65.4544 145.634L64.5904 153.314C64.2624 156.23 65.6656 158.364 69.0624 158.746C71.2432 158.991 73.2464 158.06 73.2464 158.06C73.2464 158.06 74.3088 159.361 75.904 159.54L77.1664 156.98C76.2272 156.751 75.8688 156.276 75.9232 155.794Z" fill="white"/>
<path d="M84.368 154.886L84.1472 149.534L87.104 149.414L86.9872 146.559L84.0304 146.679L83.8928 143.29L80.7664 144.874L80.8464 146.81L79.0624 146.884L79.1792 149.738L80.9632 149.665L81.1904 155.22C81.2944 157.769 82.432 159.38 85.2608 159.266C86 159.236 87.3952 159.001 87.3952 159.001L87.5552 156.082C86.9299 156.231 86.2946 156.334 85.6544 156.391C84.6848 156.431 84.4032 155.778 84.368 154.886Z" fill="white"/>
<path d="M93.12 154.686L91.16 140.46L88 140.895L90.048 155.753C90.296 157.546 92.264 158.562 94.0352 158.343L94.656 155.554C93.6784 155.561 93.1888 155.19 93.12 154.686Z" fill="white"/>
<path d="M108.438 151.051L106.038 142.45L102.998 143.302L105.336 151.7C105.336 151.7 104.274 153.11 102.726 153.542C101.472 153.891 100.525 153.627 100.12 152.175L98.0272 144.682L94.9312 145.546L97.0112 152.991C97.8 155.817 99.9008 157.27 103.194 156.351C105.306 155.763 106.816 154.15 106.816 154.15C106.816 154.15 108.286 154.95 109.834 154.524L110.048 151.684C109.078 151.825 108.568 151.518 108.438 151.051Z" fill="white"/>
<path d="M115.339 148.1L109.667 134.9L106.739 136.158L112.659 149.94C113.373 151.602 115.539 152.06 117.192 151.38L117.048 148.526C116.112 148.796 115.541 148.569 115.339 148.1Z" fill="white"/>
<path d="M129.11 140.562L124.523 132.906L121.803 134.532L126.283 142.012C126.283 142.012 125.629 143.652 124.253 144.478C123.133 145.146 122.154 145.142 121.373 143.85L117.373 137.18L114.618 138.831L118.608 145.46C120.117 147.975 122.525 148.82 125.456 147.06C127.336 145.94 128.366 143.978 128.366 143.978C128.366 143.978 129.995 144.369 131.374 143.542L130.83 140.746C129.933 141.14 129.358 140.98 129.11 140.562Z" fill="white"/>
<path d="M136.736 125.906L134.301 124.306C131.709 127.468 133.512 129.586 132.302 132.084L125.934 124.745L123.547 126.825L135.246 140.31L137.635 138.23L134.358 134.452L134.736 133.719L140.928 135.369L143.896 132.794L135.714 130.914C136.13 129.098 134.95 128.401 136.736 125.906Z" fill="white"/>
<path d="M39.4608 129.554C39.1066 129.554 38.7603 129.659 38.4657 129.855C38.171 130.052 37.9413 130.331 37.8055 130.659C37.6698 130.986 37.6341 131.346 37.703 131.693C37.7719 132.041 37.9423 132.36 38.1926 132.61C38.4429 132.861 38.762 133.031 39.1093 133.101C39.4567 133.17 39.8167 133.135 40.144 132.999C40.4712 132.864 40.7509 132.634 40.9477 132.34C41.1445 132.045 41.2496 131.699 41.2496 131.345C41.2496 130.87 41.0612 130.415 40.7258 130.079C40.3903 129.744 39.9354 129.555 39.4608 129.554Z" fill="white"/>
</svg>
